<svg width="16" height="17" viewBox="0 0 16 17" fill="none" xmlns="http://www.w3.org/2000/svg">
<path d="M12.0002 9.16659H8.66683V12.4999C8.66683 12.8666 8.36683 13.1666 8.00016 13.1666C7.6335 13.1666 7.3335 12.8666 7.3335 12.4999V9.16659H4.00016C3.6335 9.16659 3.3335 8.86659 3.3335 8.49992C3.3335 8.13325 3.6335 7.83325 4.00016 7.83325H7.3335V4.49992C7.3335 4.13325 7.6335 3.83325 8.00016 3.83325C8.36683 3.83325 8.66683 4.13325 8.66683 4.49992V7.83325H12.0002C12.3668 7.83325 12.6668 8.13325 12.6668 8.49992C12.6668 8.86659 12.3668 9.16659 12.0002 9.16659Z" fill="#148CFE"/>
</svg>
