<svg width="16" height="15" viewBox="0 0 16 15" fill="none" xmlns="http://www.w3.org/2000/svg">
<g clip-path="url(#clip0)">
<path d="M15.9972 13.2216C15.9972 13.5952 15.8654 13.8802 15.602 14.0766C15.3385 14.2731 15.0151 14.3713 14.6319 14.3713H1.36722C0.983989 14.3713 0.660636 14.2707 0.397163 14.0695C0.13369 13.8683 0.00195312 13.5856 0.00195312 13.2216C0.00195312 12.9341 0.0881807 12.6419 0.260636 12.3449L6.88579 0.790419C7.20195 0.263473 7.57561 0 8.00674 0C8.43788 0 8.80195 0.263473 9.09896 0.790419L15.7385 12.3593C15.9109 12.6659 15.9972 12.9533 15.9972 13.2216ZM8.99836 5.87784V3.77964H7.00075V5.87784C7.00075 6.01198 7.01034 6.13892 7.0295 6.25868C7.04866 6.37844 7.07501 6.51258 7.10854 6.66108C7.14207 6.80958 7.16842 6.93653 7.18758 7.04192L7.56123 9.37006H8.40914L8.79716 7.04192C8.81632 6.94611 8.84507 6.82156 8.88339 6.66826C8.92171 6.51497 8.95046 6.37844 8.96962 6.25868C8.98878 6.13892 8.99836 6.01198 8.99836 5.87784ZM8.99836 11.4395C8.99836 11.1617 8.90016 10.9269 8.70375 10.7353C8.50734 10.5437 8.27022 10.4479 7.99237 10.4479C7.72411 10.4479 7.49177 10.5437 7.29537 10.7353C7.09896 10.9269 7.00075 11.1617 7.00075 11.4395C7.00075 11.7174 7.09896 11.9545 7.29537 12.1509C7.49177 12.3473 7.72411 12.4455 7.99237 12.4455C8.27022 12.4455 8.50734 12.3473 8.70375 12.1509C8.90016 11.9545 8.99836 11.7174 8.99836 11.4395Z" fill="#148CFE"/>
</g>
<defs>
<clipPath id="clip0">
<rect width="16" height="14.3713" fill="white"/>
</clipPath>
</defs>
</svg>
