<svg width="24" height="24" viewBox="0 0 24 24" fill="none" xmlns="http://www.w3.org/2000/svg">
<mask id="path-1-outside-1" maskUnits="userSpaceOnUse" x="0.25" y="0.25" width="24" height="24" fill="black">
<rect fill="white" x="0.25" y="0.25" width="24" height="24"/>
<path d="M12 2.25C6.62391 2.25 2.25 6.62391 2.25 12C2.25 17.3761 6.62391 21.75 12 21.75C17.3761 21.75 21.75 17.3761 21.75 12C21.75 6.62391 17.3761 2.25 12 2.25ZM15.5302 14.4698C15.6027 14.5388 15.6608 14.6216 15.7008 14.7133C15.7409 14.805 15.7622 14.9039 15.7635 15.004C15.7648 15.1041 15.746 15.2034 15.7083 15.2961C15.6706 15.3889 15.6147 15.4731 15.5439 15.5439C15.4731 15.6147 15.3889 15.6706 15.2961 15.7083C15.2034 15.746 15.1041 15.7648 15.004 15.7635C14.9039 15.7622 14.805 15.7409 14.7133 15.7008C14.6216 15.6608 14.5388 15.6027 14.4698 15.5302L12 13.0608L9.53016 15.5302C9.38836 15.6649 9.19955 15.7389 9.00398 15.7364C8.8084 15.7339 8.62155 15.6551 8.48325 15.5168C8.34495 15.3785 8.26614 15.1916 8.26364 14.996C8.26114 14.8005 8.33513 14.6116 8.46984 14.4698L10.9392 12L8.46984 9.53016C8.33513 9.38836 8.26114 9.19955 8.26364 9.00398C8.26614 8.8084 8.34495 8.62155 8.48325 8.48325C8.62155 8.34495 8.8084 8.26614 9.00398 8.26364C9.19955 8.26114 9.38836 8.33513 9.53016 8.46984L12 10.9392L14.4698 8.46984C14.6116 8.33513 14.8005 8.26114 14.996 8.26364C15.1916 8.26614 15.3785 8.34495 15.5168 8.48325C15.6551 8.62155 15.7339 8.8084 15.7364 9.00398C15.7389 9.19955 15.6649 9.38836 15.5302 9.53016L13.0608 12L15.5302 14.4698Z"/>
</mask>
<path d="M12 2.25C6.62391 2.25 2.25 6.62391 2.25 12C2.25 17.3761 6.62391 21.75 12 21.75C17.3761 21.75 21.75 17.3761 21.75 12C21.75 6.62391 17.3761 2.25 12 2.25ZM15.5302 14.4698C15.6027 14.5388 15.6608 14.6216 15.7008 14.7133C15.7409 14.805 15.7622 14.9039 15.7635 15.004C15.7648 15.1041 15.746 15.2034 15.7083 15.2961C15.6706 15.3889 15.6147 15.4731 15.5439 15.5439C15.4731 15.6147 15.3889 15.6706 15.2961 15.7083C15.2034 15.746 15.1041 15.7648 15.004 15.7635C14.9039 15.7622 14.805 15.7409 14.7133 15.7008C14.6216 15.6608 14.5388 15.6027 14.4698 15.5302L12 13.0608L9.53016 15.5302C9.38836 15.6649 9.19955 15.7389 9.00398 15.7364C8.8084 15.7339 8.62155 15.6551 8.48325 15.5168C8.34495 15.3785 8.26614 15.1916 8.26364 14.996C8.26114 14.8005 8.33513 14.6116 8.46984 14.4698L10.9392 12L8.46984 9.53016C8.33513 9.38836 8.26114 9.19955 8.26364 9.00398C8.26614 8.8084 8.34495 8.62155 8.48325 8.48325C8.62155 8.34495 8.8084 8.26614 9.00398 8.26364C9.19955 8.26114 9.38836 8.33513 9.53016 8.46984L12 10.9392L14.4698 8.46984C14.6116 8.33513 14.8005 8.26114 14.996 8.26364C15.1916 8.26614 15.3785 8.34495 15.5168 8.48325C15.6551 8.62155 15.7339 8.8084 15.7364 9.00398C15.7389 9.19955 15.6649 9.38836 15.5302 9.53016L13.0608 12L15.5302 14.4698Z" fill="#949494"/>
<path d="M15.5302 14.4698L14.1158 15.8839L14.134 15.9021L14.1526 15.9198L15.5302 14.4698ZM14.4698 15.5302L15.9198 14.1526L15.9021 14.134L15.8839 14.1158L14.4698 15.5302ZM12 13.0608L13.4141 11.6464L12 10.2326L10.5859 11.6464L12 13.0608ZM9.53016 15.5302L10.9077 16.9801L10.9262 16.9625L10.9442 16.9445L9.53016 15.5302ZM8.46984 14.4698L7.0555 13.0558L7.03746 13.0738L7.01989 13.0923L8.46984 14.4698ZM10.9392 12L12.3536 13.4141L13.7674 12L12.3536 10.5859L10.9392 12ZM8.46984 9.53016L7.01989 10.9077L7.03746 10.9262L7.0555 10.9442L8.46984 9.53016ZM9.53016 8.46984L10.9442 7.0555L10.9262 7.03746L10.9077 7.01989L9.53016 8.46984ZM12 10.9392L10.5859 12.3536L12 13.7674L13.4141 12.3536L12 10.9392ZM14.4698 8.46984L13.0923 7.01989L13.0738 7.03746L13.0558 7.0555L14.4698 8.46984ZM15.5302 9.53016L16.9445 10.9442L16.9625 10.9262L16.9801 10.9077L15.5302 9.53016ZM13.0608 12L11.6464 10.5859L10.2326 12L11.6464 13.4141L13.0608 12ZM12 0.25C5.51934 0.25 0.25 5.51934 0.25 12H4.25C4.25 7.72848 7.72848 4.25 12 4.25V0.25ZM0.25 12C0.25 18.4807 5.51934 23.75 12 23.75V19.75C7.72848 19.75 4.25 16.2715 4.25 12H0.25ZM12 23.75C18.4807 23.75 23.75 18.4807 23.75 12H19.75C19.75 16.2715 16.2715 19.75 12 19.75V23.75ZM23.75 12C23.75 5.51934 18.4807 0.25 12 0.25V4.25C16.2715 4.25 19.75 7.72848 19.75 12H23.75ZM14.1526 15.9198C14.0316 15.8049 13.9349 15.6669 13.8681 15.514L17.5336 13.9126C17.3866 13.5763 17.1738 13.2727 16.9077 13.0199L14.1526 15.9198ZM13.8681 15.514C13.8013 15.3611 13.7658 15.1964 13.7637 15.0296L17.7634 14.9784C17.7587 14.6113 17.6805 14.249 17.5336 13.9126L13.8681 15.514ZM13.7637 15.0296C13.7615 14.8628 13.7928 14.6972 13.8557 14.5426L17.5609 16.0497C17.6992 15.7096 17.7681 15.3454 17.7634 14.9784L13.7637 15.0296ZM13.8557 14.5426C13.9186 14.3881 14.0117 14.2477 14.1297 14.1297L16.9581 16.9581C17.2177 16.6986 17.4226 16.3897 17.5609 16.0497L13.8557 14.5426ZM14.1297 14.1297C14.2477 14.0117 14.3881 13.9186 14.5426 13.8557L16.0497 17.5609C16.3897 17.4226 16.6986 17.2177 16.9581 16.9581L14.1297 14.1297ZM14.5426 13.8557C14.6972 13.7928 14.8628 13.7615 15.0296 13.7637L14.9784 17.7634C15.3454 17.7681 15.7096 17.6992 16.0497 17.5609L14.5426 13.8557ZM15.0296 13.7637C15.1964 13.7658 15.3611 13.8013 15.514 13.8681L13.9126 17.5336C14.249 17.6805 14.6113 17.7587 14.9784 17.7634L15.0296 13.7637ZM15.514 13.8681C15.6669 13.9349 15.8049 14.0316 15.9198 14.1526L13.0199 16.9077C13.2727 17.1738 13.5763 17.3866 13.9126 17.5336L15.514 13.8681ZM15.8839 14.1158L13.4141 11.6464L10.5859 14.4751L13.0558 16.9445L15.8839 14.1158ZM10.5859 11.6464L8.11608 14.1158L10.9442 16.9445L13.4141 14.4751L10.5859 11.6464ZM8.15261 14.0802C8.38894 13.8557 8.70362 13.7324 9.02958 13.7365L8.97837 17.7362C9.69547 17.7454 10.3878 17.4741 10.9077 16.9801L8.15261 14.0802ZM9.02958 13.7365C9.35554 13.7407 9.66696 13.872 9.89746 14.1025L7.06903 16.931C7.57613 17.4381 8.26127 17.727 8.97837 17.7362L9.02958 13.7365ZM9.89746 14.1025C10.128 14.333 10.2593 14.6445 10.2635 14.9704L6.2638 15.0216C6.27298 15.7387 6.56193 16.4239 7.06903 16.931L9.89746 14.1025ZM10.2635 14.9704C10.2676 15.2964 10.1443 15.6111 9.9198 15.8474L7.01989 13.0923C6.52593 13.6122 6.25462 14.3045 6.2638 15.0216L10.2635 14.9704ZM9.88419 15.8839L12.3536 13.4141L9.52487 10.5859L7.0555 13.0558L9.88419 15.8839ZM12.3536 10.5859L9.88419 8.11608L7.0555 10.9442L9.52487 13.4141L12.3536 10.5859ZM9.9198 8.15261C10.1443 8.38894 10.2676 8.70363 10.2635 9.02958L6.2638 8.97837C6.25462 9.69547 6.52593 10.3878 7.01989 10.9077L9.9198 8.15261ZM10.2635 9.02958C10.2593 9.35553 10.128 9.66696 9.89746 9.89746L7.06903 7.06903C6.56193 7.57614 6.27298 8.26128 6.2638 8.97837L10.2635 9.02958ZM9.89746 9.89746C9.66696 10.128 9.35553 10.2593 9.02958 10.2635L8.97837 6.2638C8.26128 6.27298 7.57614 6.56193 7.06903 7.06903L9.89746 9.89746ZM9.02958 10.2635C8.70363 10.2676 8.38894 10.1443 8.15261 9.9198L10.9077 7.01989C10.3878 6.52593 9.69547 6.25462 8.97837 6.2638L9.02958 10.2635ZM8.11608 9.88419L10.5859 12.3536L13.4141 9.52487L10.9442 7.0555L8.11608 9.88419ZM13.4141 12.3536L15.8839 9.88419L13.0558 7.0555L10.5859 9.52487L13.4141 12.3536ZM15.8474 9.9198C15.6111 10.1443 15.2964 10.2676 14.9704 10.2635L15.0216 6.2638C14.3045 6.25462 13.6122 6.52593 13.0923 7.01989L15.8474 9.9198ZM14.9704 10.2635C14.6445 10.2593 14.333 10.128 14.1025 9.89746L16.931 7.06903C16.4239 6.56193 15.7387 6.27298 15.0216 6.2638L14.9704 10.2635ZM14.1025 9.89746C13.872 9.66696 13.7407 9.35554 13.7365 9.02958L17.7362 8.97837C17.727 8.26127 17.4381 7.57613 16.931 7.06903L14.1025 9.89746ZM13.7365 9.02958C13.7324 8.70362 13.8557 8.38894 14.0802 8.15261L16.9801 10.9077C17.4741 10.3878 17.7454 9.69547 17.7362 8.97837L13.7365 9.02958ZM14.1158 8.11608L11.6464 10.5859L14.4751 13.4141L16.9445 10.9442L14.1158 8.11608ZM11.6464 13.4141L14.1158 15.8839L16.9445 13.0558L14.4751 10.5859L11.6464 13.4141Z" fill="white" mask="url(#path-1-outside-1)"/>
</svg>
