<svg width="35" height="37" viewBox="0 0 35 37" fill="none" xmlns="http://www.w3.org/2000/svg">
<path d="M29.7625 19.5385C29.3125 19.3077 29.2 18.8462 29.3125 18.6154L30.4375 14.4615L26.5 15.2692C26.3875 15.2692 25.9375 15.2692 25.825 14.4615L25.4875 13.0769L22.7875 16.3077C22.7875 16.3077 20.9875 18.2692 21.55 15.2692L22.675 8.92308L20.5375 10.0769C20.425 10.0769 19.975 10.1923 19.4125 9.03846L17.5 5L15.475 8.80769C14.9125 9.96154 14.4625 9.84615 14.35 9.84615L12.2125 8.69231L13.3375 15.0385C13.9 18.0385 12.1 16.0769 12.1 16.0769L9.4 12.8462L9.0625 14.2308C8.8375 15.0385 8.5 15.0385 8.3875 15.0385L4.45 14.2308L5.575 18.3846C5.575 18.7308 5.575 19.0769 5.125 19.3077L4 20C4 20 8.5 23.6923 9.9625 24.9615C10.3 25.1923 10.975 25.8846 10.75 26.6923L10.1875 28.3077L16.375 27.3846C16.7125 27.3846 17.3875 27.3846 17.275 28.4231L16.9375 35H18.0625L17.725 28.4231C17.725 27.3846 18.4 27.3846 18.625 27.3846L24.8125 28.3077L24.25 26.6923C24.025 25.8846 24.7 25.1923 25.0375 24.9615C26.5 23.6923 31 20 31 20L29.7625 19.5385Z" fill="#D22F27"/>
</svg>
