<svg width="24" height="24" viewBox="0 0 24 24" fill="none" xmlns="http://www.w3.org/2000/svg">
<path d="M4.70593 0.00601196C2.12072 0.00601196 0.00488281 2.1218 0.00488281 4.70706V19.2952C0.00488281 21.8805 2.12067 23.9955 4.70593 23.9955H19.2941C21.8793 23.9955 23.9944 21.8805 23.9944 19.2952V4.70706C23.9944 2.12185 21.8793 0.00601196 19.2941 0.00601196H4.70593ZM5.88832 3.96476C7.12787 3.96476 7.89138 4.77851 7.91495 5.84816C7.91495 6.8942 7.12782 7.73082 5.86434 7.73082H5.84108C4.62512 7.73082 3.83919 6.89425 3.83919 5.84816C3.83919 4.77853 4.64891 3.96476 5.88829 3.96476H5.88832ZM16.5702 8.9642C18.9541 8.9642 20.7412 10.5223 20.7412 13.8707V20.1214H17.1183V14.2898C17.1183 12.8243 16.594 11.8245 15.2829 11.8245C14.282 11.8245 13.6854 12.4984 13.4235 13.1494C13.3278 13.3823 13.3043 13.7075 13.3043 14.0333V20.1214H9.68139C9.68139 20.1214 9.72894 10.2427 9.68139 9.21985H13.305V10.7636C13.7865 10.0208 14.6476 8.96418 16.5702 8.96418V8.9642ZM4.05289 9.22064H7.67576V20.1215H4.05289V9.22064Z" fill="#828282"/>
</svg>
