<svg width="24" height="24" viewBox="0 0 24 24" fill="none" xmlns="http://www.w3.org/2000/svg">
<g clip-path="url(#clip0)">
<path d="M20.4481 20.4487H16.8921V14.8797C16.8921 13.5517 16.8684 11.8422 15.0426 11.8422C13.1905 11.8422 12.9071 13.2891 12.9071 14.783V20.4484H9.35115V8.99623H12.7649V10.5613H12.8127C13.1543 9.97714 13.648 9.49659 14.2411 9.17081C14.8343 8.84503 15.5047 8.68624 16.1809 8.71133C19.7851 8.71133 20.4496 11.0821 20.4496 14.1663L20.4481 20.4487ZM5.33865 7.43089C4.19893 7.43108 3.27484 6.50726 3.27465 5.36755C3.27446 4.22783 4.19818 3.30373 5.3379 3.30355C6.47762 3.30326 7.40171 4.22708 7.4019 5.3668C7.402 5.91411 7.18468 6.43905 6.79775 6.82614C6.41082 7.21323 5.88596 7.43076 5.33865 7.43089ZM7.11671 20.4488H3.55693V8.99623H7.11662V20.4487L7.11671 20.4488ZM22.221 0.00101432H1.77005C0.803492 -0.00986068 0.0108359 0.764421 -0.000976562 1.73098V22.2672C0.0104609 23.2342 0.803023 24.0093 1.76996 23.9991H22.221C23.19 24.0111 23.9856 23.2361 23.999 22.2672V1.72939C23.9852 0.760952 23.1895 -0.0132357 22.221 -0.000579432" fill="#0A66C2"/>
</g>
<defs>
<clipPath id="clip0">
<rect width="24" height="24" fill="white"/>
</clipPath>
</defs>
</svg>
