<svg width="115" height="115" viewBox="0 0 115 115" fill="none" xmlns="http://www.w3.org/2000/svg">
<g clip-path="url(#clip0)">
<path d="M23 19.1667H44.0833V15.3333H28.75C26.6329 15.3333 24.9167 13.6171 24.9167 11.5V3.83333C24.9167 1.71624 26.6329 0 28.75 0H44.0833C46.2004 0 47.9167 1.71624 47.9167 3.83333V19.1667H76.6667C87.9076 19.1118 97.5195 27.2395 99.3332 38.3333H109.25C112.426 38.3333 115 40.9077 115 44.0833V70.9167C115 74.0923 112.426 76.6667 109.25 76.6667H57.5V111.167C57.3742 113.397 55.4727 115.109 53.2412 115H36.8422C34.6107 115.109 32.7091 113.397 32.5833 111.167V76.6667H3.83334C1.71625 76.6667 0 74.9504 0 72.8333V42.1667C0.0137329 29.4698 10.3031 19.1804 23 19.1667ZM44.0833 3.83333H28.75V11.5H44.0833V3.83333ZM76.6667 23C66.086 23.0116 57.5116 31.586 57.5 42.1667V72.8333H61.686C61.459 72.2195 61.3397 71.5711 61.3333 70.9167V44.0833C61.3333 40.9077 63.9077 38.3333 67.0833 38.3333H95.45C93.6719 29.3817 85.7931 22.95 76.6667 23ZM96.3681 58.0961L111.167 70.6215V45.5726L96.3681 58.0961ZM93.4011 60.6069L91.8812 61.8911C89.7341 63.6931 86.6031 63.6931 84.456 61.8911L82.9227 60.6031L68.4844 72.8333H107.849L93.4011 60.6069ZM65.1667 45.5726V70.6215L79.9653 58.0961L65.1667 45.5726ZM67.0833 42.1667L86.9362 58.9739C87.6488 59.5723 88.6883 59.5723 89.401 58.9739L109.25 42.1667H67.0833ZM36.3764 111.017C36.5069 111.125 36.6735 111.178 36.8422 111.167H53.2412C53.3701 111.158 53.4982 111.14 53.6245 111.113C53.6475 111.113 53.6609 111.113 53.6648 111.138V76.6667H47.9147V105.417C47.9147 106.475 47.0566 107.333 45.9981 107.333C44.9395 107.333 44.0814 106.475 44.0814 105.417V76.6667H36.4147L36.3764 111.017ZM3.83334 72.8333H53.6667V42.1667C53.6727 34.4525 57.5457 27.255 63.9803 23H23C12.4194 23.0116 3.84496 31.586 3.83334 42.1667V72.8333Z" fill="white"/>
<path d="M26.8307 53.6666C28.9478 53.6666 30.6641 55.3829 30.6641 57.5V65.1666C30.6641 67.2837 28.9478 69 26.8307 69H11.4974C9.3803 69 7.66406 67.2837 7.66406 65.1666V57.5C7.66406 55.3829 9.3803 53.6666 11.4974 53.6666H26.8307ZM26.8307 65.1666V57.5H11.4974V65.1666H26.8307Z" fill="white"/>
<path d="M93.9154 49.8333H82.4154C81.3568 49.8333 80.4987 48.9752 80.4987 47.9167C80.4987 46.8581 81.3568 46 82.4154 46H93.9154C94.9739 46 95.832 46.8581 95.832 47.9167C95.832 48.9752 94.9739 49.8333 93.9154 49.8333Z" fill="white"/>
</g>
<defs>
<clipPath id="clip0">
<rect width="115" height="115" fill="white" transform="matrix(-1 0 0 1 115 0)"/>
</clipPath>
</defs>
</svg>
