<svg width="24" height="24" viewBox="0 0 24 24" fill="none" xmlns="http://www.w3.org/2000/svg">
<path fill-rule="evenodd" clip-rule="evenodd" d="M12 0C5.24004 0 0 4.95168 0 11.64C0 15.1384 1.43376 18.1615 3.76867 20.2495C3.96468 20.425 4.083 20.6707 4.09104 20.9338L4.15639 23.0683C4.17727 23.7492 4.88057 24.1922 5.50361 23.9172L7.88544 22.8658C8.08735 22.7767 8.3136 22.7602 8.52636 22.8187C9.62088 23.1197 10.7858 23.28 12 23.28C18.76 23.28 24 18.3283 24 11.64C24 4.95168 18.76 0 12 0Z" fill="url(#paint0_radial)"/>
<path fill-rule="evenodd" clip-rule="evenodd" d="M4.79577 15.0442L8.32077 9.45166C8.88148 8.56198 10.0822 8.34046 10.9235 8.97142L13.7271 11.0741C13.9844 11.2671 14.3383 11.2661 14.5944 11.0717L18.3808 8.19802C18.8862 7.8145 19.5459 8.4193 19.2077 8.95601L15.6827 14.5486C15.122 15.4382 13.9212 15.6598 13.08 15.0288L10.2763 12.926C10.0191 12.7331 9.66513 12.7341 9.409 12.9285L5.62257 15.8022C5.1172 16.1857 4.45749 15.5809 4.79577 15.0442Z" fill="white"/>
<defs>
<radialGradient id="paint0_radial" cx="0" cy="0" r="1" gradientUnits="userSpaceOnUse" gradientTransform="translate(4.61938 23.8716) scale(26.1503)">
<stop stop-color="#0099FF"/>
<stop offset="0.609754" stop-color="#A033FF"/>
<stop offset="0.934823" stop-color="#FF5280"/>
<stop offset="1" stop-color="#FF7061"/>
</radialGradient>
</defs>
</svg>
