<svg width="24" height="24" viewBox="0 0 24 24" fill="none" xmlns="http://www.w3.org/2000/svg">
<path d="M22.6667 10.6667C22.313 10.6667 21.9739 10.8071 21.7239 11.0572C21.4738 11.3072 21.3333 11.6464 21.3333 12V20C21.3333 20.3536 21.1929 20.6928 20.9428 20.9428C20.6928 21.1929 20.3536 21.3333 20 21.3333H4C3.64638 21.3333 3.30724 21.1929 3.05719 20.9428C2.80714 20.6928 2.66667 20.3536 2.66667 20V4C2.66667 3.64638 2.80714 3.30724 3.05719 3.05719C3.30724 2.80714 3.64638 2.66667 4 2.66667H12C12.3536 2.66667 12.6928 2.52619 12.9428 2.27614C13.1929 2.02609 13.3333 1.68696 13.3333 1.33333C13.3333 0.979711 13.1929 0.640573 12.9428 0.390524C12.6928 0.140476 12.3536 0 12 0H4C2.93913 0 1.92172 0.421427 1.17157 1.17157C0.421427 1.92172 0 2.93913 0 4V20C0 21.0609 0.421427 22.0783 1.17157 22.8284C1.92172 23.5786 2.93913 24 4 24H20C21.0609 24 22.0783 23.5786 22.8284 22.8284C23.5786 22.0783 24 21.0609 24 20V12C24 11.6464 23.8595 11.3072 23.6095 11.0572C23.3594 10.8071 23.0203 10.6667 22.6667 10.6667Z" fill="#148CFE"/>
<path d="M17.3336 2.66667H19.4402L11.0536 11.04C10.9286 11.164 10.8294 11.3114 10.7617 11.4739C10.694 11.6364 10.6592 11.8107 10.6592 11.9867C10.6592 12.1627 10.694 12.337 10.7617 12.4994C10.8294 12.6619 10.9286 12.8094 11.0536 12.9333C11.1775 13.0583 11.325 13.1575 11.4875 13.2252C11.65 13.2929 11.8242 13.3277 12.0002 13.3277C12.1763 13.3277 12.3505 13.2929 12.513 13.2252C12.6755 13.1575 12.823 13.0583 12.9469 12.9333L21.3336 4.56V6.66667C21.3336 7.02029 21.4741 7.35943 21.7241 7.60948C21.9741 7.85952 22.3133 8 22.6669 8C23.0205 8 23.3597 7.85952 23.6097 7.60948C23.8598 7.35943 24.0002 7.02029 24.0002 6.66667V1.33333C24.0002 0.979711 23.8598 0.640573 23.6097 0.390524C23.3597 0.140476 23.0205 0 22.6669 0H17.3336C16.98 0 16.6408 0.140476 16.3908 0.390524C16.1407 0.640573 16.0002 0.979711 16.0002 1.33333C16.0002 1.68696 16.1407 2.02609 16.3908 2.27614C16.6408 2.52619 16.98 2.66667 17.3336 2.66667Z" fill="#148CFE"/>
</svg>
