<svg width="24" height="24" viewBox="0 0 24 24" fill="none" xmlns="http://www.w3.org/2000/svg">
<g clip-path="url(#clip0)">
<path d="M18.812 10.2578L13.1675 15.6796C12.8603 15.9733 12.4517 16.1372 12.0268 16.1372C11.6018 16.1372 11.1932 15.9733 10.886 15.6796L5.23777 10.2578C4.58152 9.63309 4.56202 8.58984 5.19052 7.93359C5.81902 7.27734 6.85852 7.25409 7.51477 7.88259L12.0268 12.2026L16.5425 7.88259C16.6984 7.73316 16.8822 7.61593 17.0834 7.53761C17.2847 7.45929 17.4993 7.42141 17.7152 7.42615C17.9311 7.43089 18.1439 7.47814 18.3415 7.56522C18.5391 7.65229 18.7176 7.77747 18.8668 7.93359C19.0176 8.08844 19.1363 8.27167 19.2159 8.47268C19.2955 8.67369 19.3344 8.88848 19.3304 9.10464C19.3265 9.32079 19.2797 9.53401 19.1927 9.73196C19.1058 9.92991 18.9805 10.1087 18.824 10.2578H18.812ZM23.894 2.71509C23.597 1.85559 22.769 1.27734 21.8548 1.27734H2.17927C1.27702 1.27734 0.460274 1.83984 0.140024 2.68359C0.046648 2.9307 -0.00112549 3.19269 -0.000976214 3.45684V10.6988L0.0852738 12.1403C0.433274 15.4178 2.13202 18.2851 4.76527 20.2808C4.81252 20.3161 4.85902 20.3513 4.91002 20.3866L4.93702 20.4098C6.33386 21.4314 7.93571 22.1376 9.63202 22.4798C10.4173 22.6403 11.222 22.7221 12.023 22.7221C12.761 22.7221 13.5035 22.6516 14.2303 22.5151C14.3203 22.4881 14.4058 22.4723 14.4958 22.4566C14.519 22.4566 14.543 22.4408 14.57 22.4296C16.1964 22.0724 17.7312 21.3822 19.0775 20.4023L19.1045 20.3708L19.241 20.2651C21.866 18.2731 23.5655 15.4058 23.9248 12.1163L23.999 10.6786V3.44409C23.999 3.19434 23.9675 2.94384 23.8783 2.70159L23.894 2.71509Z" fill="#949494"/>
</g>
<defs>
<clipPath id="clip0">
<rect width="24" height="24" fill="white"/>
</clipPath>
</defs>
</svg>
