<svg width="19" height="12" viewBox="0 0 19 12" fill="none" xmlns="http://www.w3.org/2000/svg">
<path fill-rule="evenodd" clip-rule="evenodd" d="M6.78088 0.968997C6.85072 1.03867 6.90614 1.12143 6.94394 1.21255C6.98175 1.30366 7.00122 1.40135 7.00122 1.5C7.00122 1.59865 6.98175 1.69633 6.94394 1.78745C6.90614 1.87857 6.85072 1.96133 6.78088 2.031L2.81038 6L6.78088 9.969C6.85061 10.0387 6.90592 10.1215 6.94366 10.2126C6.9814 10.3037 7.00082 10.4014 7.00082 10.5C7.00082 10.5986 6.9814 10.6963 6.94366 10.7874C6.90592 10.8785 6.85061 10.9613 6.78088 11.031C6.71114 11.1007 6.62836 11.156 6.53725 11.1938C6.44614 11.2315 6.34849 11.2509 6.24988 11.2509C6.15126 11.2509 6.05361 11.2315 5.9625 11.1938C5.87139 11.156 5.78861 11.1007 5.71888 11.031L1.21888 6.531C1.14903 6.46133 1.09362 6.37856 1.05581 6.28745C1.018 6.19633 0.998535 6.09865 0.998535 6C0.998535 5.90135 1.018 5.80366 1.05581 5.71255C1.09362 5.62143 1.14903 5.53867 1.21888 5.469L5.71888 0.968997C5.78854 0.899153 5.87131 0.843738 5.96243 0.805928C6.05354 0.768119 6.15123 0.748657 6.24988 0.748657C6.34853 0.748657 6.44621 0.768119 6.53733 0.805928C6.62844 0.843738 6.71121 0.899153 6.78088 0.968997Z" fill="#0958A2"/>
<path fill-rule="evenodd" clip-rule="evenodd" d="M1.75 6C1.75 5.80109 1.82902 5.61032 1.96967 5.46967C2.11032 5.32902 2.30109 5.25 2.5 5.25H18.25C18.4489 5.25 18.6397 5.32902 18.7803 5.46967C18.921 5.61032 19 5.80109 19 6C19 6.19891 18.921 6.38968 18.7803 6.53033C18.6397 6.67098 18.4489 6.75 18.25 6.75H2.5C2.30109 6.75 2.11032 6.67098 1.96967 6.53033C1.82902 6.38968 1.75 6.19891 1.75 6Z" fill="#0958A2"/>
</svg>
