<svg width="16" height="16" viewBox="0 0 16 16" fill="none" xmlns="http://www.w3.org/2000/svg">
<g clip-path="url(#clip0)">
<path d="M8 1C3.6 1 0 3.88 0 7.4C0 9.08 0.8 10.68 2.24 11.8C2.24 12.28 1.92 13.56 0 15.4C0 15.4 2.8 15.4 5.2 13.4C6.08 13.64 7.04 13.8 8 13.8C12.4 13.8 16 10.92 16 7.4C16 3.88 12.4 1 8 1ZM8.8 10.6H7.2V9H8.8V10.6ZM10.24 6.6C10 6.92 9.68 7.08 9.36 7.24C9.12 7.4 9.04 7.48 8.96 7.64C8.8 7.8 8.8 7.96 8.8 8.2H7.2C7.2 7.8 7.28 7.56 7.44 7.32C7.6 7.16 7.92 6.92 8.32 6.68C8.56 6.6 8.72 6.44 8.8 6.28C8.88 6.12 8.96 5.88 8.96 5.72C8.96 5.48 8.88 5.32 8.72 5.16C8.56 5 8.32 4.92 8.08 4.92C7.84 4.92 7.68 5 7.52 5.08C7.36 5.16 7.28 5.32 7.28 5.56H5.68C5.76 5 6 4.52 6.4 4.2C6.8 3.88 7.36 3.8 8.08 3.8C8.8 3.8 9.44 3.96 9.84 4.28C10.24 4.6 10.48 5.08 10.48 5.64C10.56 5.96 10.48 6.28 10.24 6.6Z" fill="#148CFE"/>
</g>
<defs>
<clipPath id="clip0">
<rect width="16" height="16" fill="white"/>
</clipPath>
</defs>
</svg>
