<svg width="48" height="44" viewBox="0 0 48 44" fill="none" xmlns="http://www.w3.org/2000/svg">
<path d="M16.884 29.0248C16.6274 29.3163 16.6556 29.7606 16.9471 30.0172C18.8962 31.7332 21.4007 32.6783 23.9993 32.6783C29.8866 32.6783 34.6763 27.8886 34.6763 22.0013C34.6763 16.1139 29.8866 11.3242 23.9993 11.3242C18.112 11.3242 13.3223 16.1139 13.3223 22.0013C13.3223 23.9677 13.8616 25.89 14.8823 27.5603C15.0847 27.8918 15.5176 27.9962 15.8489 27.7938C16.1803 27.5913 16.2848 27.1585 16.0823 26.8271C15.1967 25.3775 14.7287 23.7087 14.7287 22.0012C14.7287 16.8893 18.8875 12.7305 23.9994 12.7305C29.1113 12.7305 33.2701 16.8892 33.2701 22.0012C33.2701 27.1131 29.1113 31.2719 23.9994 31.2719C21.7432 31.2719 19.5687 30.4514 17.8765 28.9616C17.585 28.7051 17.1407 28.7334 16.884 29.0248Z" fill="#148CFE"/>
<path d="M23.6129 17.4837C23.9998 17.451 24.2871 17.1109 24.2545 16.7239C24.2217 16.3369 23.8814 16.0516 23.4947 16.0823C22.0159 16.2071 20.6451 16.878 19.6349 17.9713C18.6184 19.0711 18.0586 20.5023 18.0586 22.0009C18.0586 25.277 20.7239 27.9423 24 27.9423C26.723 27.9423 29.0914 26.1006 29.7593 23.4636C29.8547 23.0871 29.6268 22.7046 29.2503 22.6093C28.8739 22.5139 28.4914 22.7418 28.396 23.1183C27.8864 25.1306 26.0787 26.536 24 26.536C21.4993 26.536 19.4649 24.5016 19.4649 22.0009C19.4648 19.6642 21.2869 17.68 23.6129 17.4837Z" fill="#148CFE"/>
<path d="M30.6883 18.6117C30.6883 17.1263 29.4799 15.918 27.9945 15.918C26.5091 15.918 25.3008 17.1264 25.3008 18.6117C25.3008 20.097 26.5092 21.3054 27.9945 21.3054C29.4798 21.3054 30.6883 20.097 30.6883 18.6117ZM26.707 18.6117C26.707 17.9018 27.2846 17.3243 27.9944 17.3243C28.7042 17.3243 29.2819 17.9018 29.2819 18.6117C29.2819 19.3215 28.7043 19.899 27.9944 19.899C27.2845 19.899 26.707 19.3215 26.707 18.6117Z" fill="#148CFE"/>
<path d="M45.8779 20.1325H45.0623C43.7513 18.1549 41.2385 14.679 37.9112 11.5326C37.629 11.2657 37.1839 11.2782 36.9172 11.5603C36.6504 11.8425 36.6628 12.2876 36.9449 12.5544C39.7737 15.2293 41.9989 18.1552 43.3641 20.1325H41.7666C40.5965 20.1325 39.6445 21.0844 39.6445 22.2546C39.6445 23.4248 40.5965 24.3768 41.7666 24.3768H43.0084C41.644 26.3003 39.4514 29.1169 36.7303 31.6495C33.1229 35.0072 29.5584 37.0022 26.1221 37.5904V36.7324C26.1221 35.5624 25.1701 34.6104 24 34.6104C22.83 34.6104 21.878 35.5623 21.878 36.7324V37.5904C18.4417 37.0022 14.8772 35.0073 11.2698 31.6495C8.54868 29.1168 6.3561 26.3002 4.99167 24.3768H6.23346C7.40363 24.3768 8.35563 23.4248 8.35563 22.2546C8.35563 21.0844 7.40363 20.1325 6.23346 20.1325H4.6368C7.36201 16.1954 14.028 7.7605 21.8779 6.412V7.14255C21.8779 8.31263 22.8299 9.26472 24 9.26472C25.17 9.26472 26.122 8.31272 26.122 7.14255V6.41172C28.8975 6.88838 31.7738 8.292 34.6846 10.593C34.8137 10.6951 34.9674 10.7445 35.1202 10.7445C35.3278 10.7445 35.5334 10.6529 35.6723 10.4774C35.9131 10.1727 35.8614 9.7305 35.5567 9.48964C32.3776 6.97651 29.207 5.46375 26.122 4.98635V3.03125C26.122 1.86118 25.17 0.90918 24 0.90918C22.8299 0.90918 21.8779 1.86108 21.8779 3.03125V4.98729C17.941 5.59473 13.9006 7.86719 9.85751 11.7523C6.64083 14.8435 4.20965 18.214 2.93766 20.1324H2.12207C0.951999 20.1325 0 21.0844 0 22.2546C0 23.4248 0.951999 24.3768 2.12207 24.3768H3.27865C6.16577 28.618 13.2578 37.681 21.8779 39.0144V40.8438C21.8779 42.0139 22.8299 42.9659 24 42.9659C25.17 42.9659 26.122 42.014 26.122 40.8438V39.0144C34.7422 37.681 41.8342 28.618 44.7213 24.3768H45.8777C47.0478 24.3768 47.9998 23.4248 47.9998 22.2546C47.9998 21.0844 47.048 20.1325 45.8779 20.1325ZM24 2.31561C24.3946 2.31561 24.7157 2.63673 24.7157 3.03135V7.14264C24.7157 7.53736 24.3946 7.85847 24 7.85847C23.6053 7.85847 23.2842 7.53736 23.2842 7.14264V3.03125C23.2842 2.63663 23.6053 2.31561 24 2.31561ZM1.40634 22.2546C1.40634 21.86 1.72746 21.5389 2.12207 21.5389H6.23337C6.62808 21.5389 6.9492 21.86 6.9492 22.2546C6.9492 22.6493 6.62808 22.9704 6.23337 22.9704H2.12207C1.72746 22.9704 1.40634 22.6492 1.40634 22.2546ZM24 41.5595C23.6053 41.5595 23.2842 41.2383 23.2842 40.8437V36.7323C23.2842 36.3377 23.6053 36.0166 24 36.0166C24.3946 36.0166 24.7157 36.3377 24.7157 36.7323V40.8437C24.7158 41.2383 24.3947 41.5595 24 41.5595ZM45.8779 22.9704H41.7666C41.3719 22.9704 41.0508 22.6492 41.0508 22.2545C41.0508 21.8599 41.3719 21.5388 41.7666 21.5388H45.8779C46.2725 21.5388 46.5937 21.8599 46.5937 22.2545C46.5937 22.6492 46.2725 22.9704 45.8779 22.9704Z" fill="#148CFE"/>
<path d="M35.8166 4.98367H41.4893V10.185C41.4893 11.3481 42.4356 12.2945 43.5988 12.2945C44.7621 12.2945 45.7084 11.3481 45.7084 10.185V3.84669C45.7084 2.14727 44.3257 0.764648 42.6262 0.764648H35.8165C34.6533 0.764648 33.707 1.71102 33.707 2.87416C33.707 4.0373 34.6535 4.98367 35.8166 4.98367ZM35.8166 2.17099H42.6263C43.5503 2.17099 44.3021 2.92273 44.3021 3.84669V10.185C44.3021 10.5727 43.9867 10.8881 43.5989 10.8881C43.2112 10.8881 42.8958 10.5727 42.8958 10.185V4.2805C42.8958 3.89207 42.5809 3.57733 42.1926 3.57733H35.8167C35.429 3.57733 35.1136 3.26193 35.1136 2.87416C35.1136 2.48638 35.429 2.17099 35.8166 2.17099Z" fill="#148CFE"/>
<path d="M4.40248 12.2945C5.56571 12.2945 6.51199 11.3481 6.51199 10.185V4.98367H12.1847C13.3479 4.98367 14.2942 4.0373 14.2942 2.87416C14.2942 1.71102 13.3479 0.764648 12.1847 0.764648H5.3751C3.67568 0.764648 2.29297 2.14727 2.29297 3.84669V10.185C2.29297 11.3481 3.23925 12.2945 4.40248 12.2945ZM3.69931 3.84669C3.69931 2.92273 4.45105 2.17099 5.3751 2.17099H12.1848C12.5726 2.17099 12.888 2.48638 12.888 2.87416C12.888 3.26193 12.5726 3.57733 12.1848 3.57733H5.80882C5.42048 3.57733 5.10565 3.89207 5.10565 4.2805V10.185C5.10565 10.5727 4.79025 10.8881 4.40248 10.8881C4.0147 10.8881 3.69931 10.5727 3.69931 10.185V3.84669Z" fill="#148CFE"/>
<path d="M43.5969 31.707C42.4337 31.707 41.4874 32.6534 41.4874 33.8165V39.0178H39.8116C39.4233 39.0178 39.1084 39.3326 39.1084 39.721C39.1084 40.1094 39.4233 40.4242 39.8116 40.4242H42.1906C42.5789 40.4242 42.8937 40.1094 42.8937 39.721V33.8165C42.8937 33.4288 43.2091 33.1134 43.5969 33.1134C43.9847 33.1134 44.3001 33.4288 44.3001 33.8165V40.1548C44.3001 41.0788 43.5483 41.8305 42.6243 41.8305H35.8146C35.4268 41.8305 35.1114 41.5151 35.1114 41.1274C35.1114 40.7396 35.4268 40.4242 35.8146 40.4242H36.8149C37.2032 40.4242 37.518 40.1094 37.518 39.721C37.518 39.3326 37.2032 39.0178 36.8149 39.0178H35.8146C34.6514 39.0178 33.7051 39.9642 33.7051 41.1274C33.7051 42.2905 34.6514 43.2369 35.8146 43.2369H42.6243C44.3237 43.2369 45.7064 41.8543 45.7064 40.1548V33.8165C45.7064 32.6534 44.76 31.707 43.5969 31.707Z" fill="#148CFE"/>
<path d="M12.1847 39.0178H6.51199V33.8165C6.51199 32.6534 5.56571 31.707 4.40248 31.707C3.23925 31.707 2.29297 32.6534 2.29297 33.8165V40.1548C2.29297 41.8543 3.67559 43.2369 5.37511 43.2369H12.1848C13.348 43.2369 14.2943 42.2905 14.2943 41.1274C14.2943 39.9642 13.3479 39.0178 12.1847 39.0178ZM12.1847 41.8305H5.37511C4.45114 41.8305 3.69931 41.0788 3.69931 40.1548V33.8165C3.69931 33.4288 4.0147 33.1134 4.40248 33.1134C4.79025 33.1134 5.10565 33.4288 5.10565 33.8165V39.721C5.10565 40.1094 5.42048 40.4242 5.80882 40.4242H12.1847C12.5725 40.4242 12.8879 40.7396 12.8879 41.1274C12.8879 41.5151 12.5725 41.8305 12.1847 41.8305Z" fill="#148CFE"/>
</svg>
