<svg width="48" height="38" viewBox="0 0 48 38" fill="none" xmlns="http://www.w3.org/2000/svg">
<path d="M46.3649 28.8227L43.5175 27.3992C43.501 27.391 43.4907 27.3743 43.4907 27.3559L43.4909 25.9248C44.6598 25.12 45.4871 23.8476 45.6941 22.3543C46.2199 21.4458 46.4969 20.4196 46.4969 19.3762C46.4969 17.4304 45.56 15.6996 44.1139 14.6104C44.1986 14.3281 44.2424 14.0369 44.2424 13.7399C44.2424 11.9018 42.5784 10.4064 40.5333 10.4064C38.4881 10.4064 36.8242 11.9018 36.8242 13.7399C36.8242 14.0373 36.8675 14.3286 36.9522 14.6107C36.09 15.2602 35.4101 16.1384 35.0008 17.1537C34.8266 15.441 34.6451 13.4163 34.471 11.0578C34.2413 7.94583 33.1221 5.31783 31.2345 3.45803C29.3613 1.61228 26.8596 0.636719 24 0.636719C21.1403 0.636719 18.6386 1.61228 16.7656 3.45793C14.878 5.31784 13.7588 7.94583 13.5291 11.0577C13.4681 11.8839 13.4062 12.667 13.3441 13.4124H6.71521C4.25559 13.4124 2.2545 15.4135 2.2545 17.8731V17.915C2.2545 18.4878 2.38987 19.0615 2.64609 19.5738L3.00599 20.2937V21.4417C3.00599 23.261 3.90252 24.8935 5.26049 25.8759V26.8914C5.26049 27.0216 5.17302 27.1375 5.04787 27.1733L2.14509 28.0027C0.882092 28.3634 0 29.5329 0 30.8464V36.6608C0 37.0492 0.314812 37.364 0.703124 37.364C1.09144 37.364 1.40625 37.0492 1.40625 36.6608V30.8464C1.40625 30.1573 1.869 29.5439 2.53143 29.3546L5.4343 28.5252C5.53902 28.4953 5.63849 28.4547 5.73318 28.4065L7.51508 30.1884V36.6608C7.51508 37.0492 7.82989 37.364 8.2182 37.364C8.60651 37.364 8.92133 37.0492 8.92133 36.6608V30.1884L10.7157 28.3941C10.9555 28.5117 11.1945 28.5802 11.3696 28.6302L12.0824 28.8339C11.1165 29.5207 10.5212 30.6409 10.5212 31.8556V36.6607C10.5212 37.049 10.836 37.3638 11.2243 37.3638C11.6126 37.3638 11.9274 37.049 11.9274 36.6607V31.8556C11.9274 30.9442 12.4662 30.1173 13.3 29.749L17.32 27.9735C18.5797 30.4962 21.1539 32.1033 24 32.1033C26.8568 32.1033 29.4223 30.4998 30.6813 27.9741L34.7001 29.749C35.5339 30.1173 36.0727 30.9442 36.0727 31.8556V36.6607C36.0727 37.049 36.3875 37.3638 36.7758 37.3638C37.1641 37.3638 37.4789 37.049 37.4789 36.6607V31.8556C37.4789 30.9562 37.152 30.1089 36.5909 29.4502L37.6791 28.9061L38.4959 29.6824C39.0672 30.2254 39.8002 30.4967 40.5334 30.4967C41.2663 30.4967 41.9996 30.2252 42.5708 29.6824L43.3875 28.9062L45.7361 30.0804C46.2652 30.3449 46.5938 30.8767 46.5938 31.4681V36.6607C46.5938 37.0491 46.9086 37.3639 47.2969 37.3639C47.6852 37.3639 48 37.0491 48 36.6607V31.4681C47.9999 30.3407 47.3734 29.327 46.3649 28.8227ZM40.5332 11.8125C41.803 11.8125 42.8361 12.6771 42.8361 13.7398C42.8361 13.7843 42.8325 13.8284 42.8289 13.8725C42.1219 13.5764 41.3464 13.4124 40.5332 13.4124C39.7201 13.4124 38.9447 13.5764 38.2378 13.8724C38.2342 13.8284 38.2303 13.7843 38.2303 13.7398C38.2303 12.6771 39.2635 11.8125 40.5332 11.8125ZM8.2183 28.9029L6.61611 27.3008C6.64921 27.1688 6.66692 27.0314 6.66692 26.8913V26.5946C7.10924 26.7399 7.57574 26.826 8.05845 26.8405C8.11255 26.8421 8.16636 26.8429 8.22027 26.8429C8.75351 26.8429 9.27411 26.7624 9.76948 26.6087V26.891C9.76948 27.0435 9.78514 27.1819 9.81298 27.3083L8.2183 28.9029ZM8.10064 25.4347C6.06683 25.3738 4.41224 23.5825 4.41224 21.4417V20.1277C4.41224 20.0186 4.38684 19.9108 4.33799 19.8132L3.90384 18.9449C3.74484 18.6267 3.66074 18.2707 3.66074 17.915V17.8731C3.66074 16.1889 5.03099 14.8186 6.71521 14.8186H12.7758V17.7375C12.7758 18.2092 12.6643 18.6816 12.4533 19.1035L12.0984 19.8132C12.0496 19.9108 12.0242 20.0185 12.0242 20.1276V21.6306C12.0242 22.6688 11.6137 23.6389 10.8684 24.3621C10.1235 25.0849 9.13995 25.4662 8.10064 25.4347ZM13.9772 27.9127L11.7559 27.2781C11.1756 27.1123 11.1757 27.0476 11.1757 26.8912L11.1759 25.9225C11.4121 25.7589 11.6373 25.5758 11.8479 25.3713C11.9897 25.2338 12.1217 25.089 12.2454 24.939C12.3584 25.1681 12.5315 25.3683 12.7553 25.5131C13.3189 25.8781 14.3825 26.4844 15.9467 27.0428L13.9772 27.9127ZM24 30.6971C21.7123 30.6971 19.6404 29.4184 18.6072 27.4051L19.6306 26.953C20.4294 26.6003 20.9455 25.8082 20.9455 24.935V23.2479C21.8902 23.6275 22.9211 23.8368 24 23.8368C25.0788 23.8368 26.1096 23.6275 27.0544 23.2479V24.935C27.0544 25.8082 27.5705 26.6004 28.3693 26.953L29.3925 27.405C28.3601 29.4205 26.2962 30.6971 24 30.6971ZM30.0969 26.1788L28.9374 25.6666C28.6478 25.5387 28.4607 25.2515 28.4607 24.9349V22.5176C30.7202 21.0516 32.2183 18.5067 32.2183 15.6185V14.3001C32.2183 13.4432 31.8539 12.6349 31.2187 12.0825C29.806 10.8539 26.6081 8.7097 21.0639 8.15527C20.6785 8.11664 20.3329 8.39845 20.2943 8.78498C20.2557 9.17142 20.5376 9.51595 20.924 9.55458C26.0807 10.0702 29.0092 12.0246 30.2959 13.1437C30.6239 13.4289 30.812 13.8505 30.812 14.3001V15.6185C30.812 19.3746 27.7561 22.4305 24 22.4305C20.244 22.4305 17.1881 19.3746 17.1881 15.6185V15.0303C17.1881 14.7601 17.3379 14.5126 17.5888 14.3682C18.4679 13.862 19.6272 12.9243 20.1581 11.3318C20.2809 10.9634 20.0818 10.5652 19.7133 10.4424C19.3451 10.3196 18.9467 10.5187 18.8239 10.8871C18.4328 12.0605 17.5547 12.765 16.8871 13.1495C16.2053 13.542 15.7818 14.2628 15.7818 15.0304V15.6186C15.7818 18.5069 17.2797 21.0517 19.5393 22.5176V24.935C19.5393 25.2516 19.3522 25.5387 19.0626 25.6667L17.903 26.1789C15.6384 25.573 14.1873 24.7651 13.5196 24.3328C13.5063 24.3242 13.4988 24.3144 13.5025 24.2921C13.7478 22.8424 14.3779 18.6607 14.9316 11.1613C15.1358 8.39424 16.1113 6.07674 17.7526 4.45956C19.3571 2.87865 21.5174 2.04297 24 2.04297C26.4825 2.04297 28.6428 2.87865 30.2473 4.45956C31.8886 6.07674 32.8641 8.39414 33.0684 11.1612C33.622 18.6603 34.2522 22.8422 34.4975 24.2921C34.5012 24.3144 34.4937 24.3242 34.4803 24.3328C33.8116 24.7657 32.3606 25.573 30.0969 26.1788ZM37.5756 27.3558C37.5756 27.3743 37.5654 27.3909 37.5489 27.3991L35.3459 28.5006C35.3198 28.4883 35.2947 28.4745 35.2682 28.4628L32.0534 27.043C33.6168 26.4848 34.6802 25.8788 35.2446 25.5133C35.7295 25.1994 35.9805 24.628 35.8841 24.0576C35.8788 24.0264 35.8731 23.9921 35.8675 23.9584C36.2629 24.7536 36.8542 25.4281 37.5756 25.9248V27.3558ZM41.6018 28.6631C41.0026 29.2328 40.0638 29.2327 39.4645 28.6631L38.8109 28.0421C38.9212 27.8355 38.9817 27.6011 38.9817 27.3558V26.6076C39.4728 26.7599 39.9937 26.8428 40.5331 26.8428C41.0725 26.8428 41.5934 26.7599 42.0844 26.6076L42.0843 27.3556C42.0843 27.6011 42.1449 27.8355 42.2552 28.0422L41.6018 28.6631ZM40.5332 25.4365C38.5864 25.4365 36.9604 23.9786 36.7511 22.0454C36.7398 21.9418 36.7058 21.8421 36.6512 21.7532C36.2093 21.0335 35.9757 20.2115 35.9757 19.376C35.9757 16.8631 38.0201 14.8186 40.5332 14.8186C43.0462 14.8186 45.0907 16.8631 45.0907 19.3761C45.0907 19.8605 45.0116 20.3403 44.8595 20.7984C42.863 18.7701 39.3508 17.9752 39.1815 17.9379C38.9736 17.892 38.7559 17.943 38.5898 18.0764C38.4237 18.2099 38.3271 18.4115 38.3271 18.6245C38.3271 18.6291 38.295 19.1169 37.7816 19.6303C37.507 19.9049 37.507 20.3502 37.7816 20.6246C38.0561 20.8992 38.5014 20.8992 38.7759 20.6246C39.1713 20.2292 39.4036 19.8279 39.5399 19.489C40.723 19.8404 43.1786 20.7281 44.2807 22.2861C43.9679 24.0982 42.3982 25.4365 40.5332 25.4365Z" fill="#148CFE"/>
</svg>
