<svg width="48" height="48" viewBox="0 0 48 48" fill="none" xmlns="http://www.w3.org/2000/svg">
<path d="M42.6458 40.3501L41.8572 40.0339C45.8231 35.6222 48 29.9556 48 24C48 19.1277 46.527 14.4397 43.8432 10.4987C43.8107 10.4347 43.7704 10.377 43.7235 10.3267C42.5478 8.63212 41.1482 7.07794 39.5421 5.71172C39.2232 5.4405 38.745 5.47913 38.4738 5.79797C38.2026 6.11681 38.2412 6.59522 38.5599 6.86634C39.8484 7.96237 40.9953 9.1875 41.9902 10.5134C40.3859 11.1404 38.4603 11.6714 36.3106 12.0909C35.7172 10.3228 34.9878 8.67431 34.1303 7.18697C32.9747 5.18213 31.6454 3.56775 30.1967 2.38041C32.4515 3.02503 34.5994 4.02384 36.5705 5.35538C36.9173 5.58947 37.3883 5.49844 37.6227 5.15156C37.857 4.80478 37.7658 4.33369 37.4189 4.09931C33.4496 1.4175 28.8094 0 24 0C17.5893 0 11.5625 2.49638 7.02956 7.02956C2.49638 11.5625 0 17.5895 0 24C0 29.9632 2.17987 35.6306 6.15225 40.0439L5.37356 40.3489C5.08678 40.4525 2.64825 41.4251 2.64825 44.5257V47.2414C2.64825 47.6601 2.98744 48 3.40613 48H7.76587H8.44453H9.25294H13.1306H14.5618C14.5984 48 14.6341 47.9965 14.6693 47.9915C14.7045 47.9965 14.7401 48 14.7767 48H17.8605C18.2792 48 18.6184 47.6608 18.6184 47.2421C18.6184 46.8234 18.2791 46.4842 17.8605 46.4842H15.5346V43.8447C15.5346 41.06 17.7219 40.259 17.8102 40.2278C17.822 40.2239 17.8336 40.2197 17.8452 40.2151L21.536 38.7697C21.5439 38.7783 21.5514 38.7873 21.5599 38.7955L23.5213 40.706C23.663 40.8438 23.8528 40.9209 24.0502 40.9209C24.0541 40.9209 24.0581 40.9209 24.0621 40.9208C24.2637 40.9178 24.456 40.8342 24.5958 40.6889L26.4791 38.7348L30.1649 40.2128C30.1783 40.2183 30.1871 40.2217 30.2008 40.2262C30.2939 40.2589 32.4816 41.0602 32.4816 43.8447V46.4842H26.9381H21.0777H20.2292C19.8105 46.4842 19.4713 46.8235 19.4713 47.2421C19.4713 47.6608 19.8106 48 20.2292 48H21.0777H26.9381H33.2395H33.2396H33.2397H34.2067H34.8852H35.6938H39.5713H44.6099C45.0286 48 45.3678 47.6554 45.3678 47.2368V44.5257C45.368 41.437 42.9478 40.4599 42.6458 40.3501ZM40.3526 39.4305L39.6055 39.1309V38.6996C40.4312 38.2154 41.0658 37.4398 41.3673 36.5147C42.4699 36.4276 43.3408 35.5044 43.3408 34.3799C43.3408 33.7111 43.0326 33.1133 42.5512 32.7198V31.3728C42.5512 28.7757 40.6023 26.6267 38.0905 26.3078C38.1191 25.7939 38.1389 25.2762 38.1485 24.7579H46.4702C46.288 30.2438 44.1331 35.4257 40.3526 39.4305ZM37.6164 37.7243H36.9252C35.586 37.7243 34.4965 36.6349 34.4965 35.2958V33.2905C35.4838 33.1834 37.2325 32.8383 38.5798 31.7131C38.8816 32.2307 39.3486 32.7905 40.0451 33.1174V35.2957C40.045 36.6349 38.9556 37.7243 37.6164 37.7243ZM38.0899 39.2107V39.6308L37.2454 40.507L36.4519 39.7342V39.2106C36.6072 39.2292 36.765 39.24 36.9253 39.24H37.6165C37.7768 39.2401 37.9344 39.2293 38.0899 39.2107ZM33.7411 31.824C33.7402 31.824 33.7394 31.824 33.7386 31.824C33.7125 31.824 33.6866 31.8254 33.6612 31.8279C33.6531 31.8288 33.6451 31.8305 33.6369 31.8316C33.6199 31.8338 33.6028 31.8359 33.5861 31.8394C33.5747 31.8416 33.5637 31.8451 33.5525 31.848C33.5394 31.8513 33.5263 31.8541 33.5137 31.858C33.5054 31.8606 33.4976 31.864 33.4895 31.8668V31.3729C33.4895 29.3923 35.1007 27.7811 37.0813 27.7811H37.4437C39.4242 27.7811 41.0352 29.3923 41.0352 31.3729V31.8607C41.021 31.8561 41.0065 31.8525 40.9919 31.8488C40.985 31.8469 40.978 31.8446 40.971 31.8428C39.9144 31.6026 39.5689 30.1925 39.5663 30.1818C39.5006 29.8913 39.2708 29.6663 38.979 29.6067C38.6872 29.5469 38.3876 29.6637 38.2131 29.905C36.8407 31.8022 33.7812 31.824 33.7411 31.824ZM41.5608 34.8907V33.8693C41.7203 33.9832 41.825 34.1695 41.825 34.3801C41.825 34.5907 41.7203 34.7767 41.5608 34.8907ZM42.8797 11.7889C45.075 15.1804 46.3321 19.1286 46.47 23.242H38.1481C38.0866 19.8306 37.6099 16.5402 36.7598 13.5437C39.09 13.0808 41.1676 12.4894 42.8797 11.7889ZM36.6322 23.2422H28.8752C28.8743 23.2421 28.8736 23.2422 28.8728 23.2422C27.8389 22.0992 26.3854 21.3441 24.7579 21.2184V14.7009C28.477 14.6639 32.0661 14.3546 35.2637 13.8172C36.1004 16.7152 36.57 19.9152 36.6322 23.2422ZM29.9466 31.1564C29.9466 31.6022 29.6454 31.978 29.236 32.0936V30.2189C29.6454 30.3347 29.9466 30.7106 29.9466 31.1564ZM24.7579 1.55784C27.7739 1.87997 30.6115 4.11778 32.8171 7.94391C33.5911 9.2865 34.2557 10.7698 34.8036 12.3609C31.7479 12.8613 28.3186 13.1493 24.7578 13.185V1.55784H24.7579ZM24.2772 22.7137C26.8588 22.7137 28.959 24.8141 28.959 27.3958V28.322C28.9539 28.3179 28.9486 28.3144 28.9434 28.3103C28.9325 28.3017 28.9213 28.2933 28.9098 28.2853C28.9009 28.2791 28.8917 28.2734 28.8825 28.2676C28.8712 28.2604 28.8599 28.2533 28.8481 28.2467C28.8373 28.2406 28.8262 28.2353 28.8151 28.2297C28.8045 28.2245 28.794 28.2191 28.7831 28.2142C28.7698 28.2083 28.756 28.2035 28.7424 28.1983C28.733 28.1948 28.7236 28.1911 28.714 28.1879C28.6987 28.1828 28.683 28.1788 28.6673 28.1748C28.6604 28.1728 28.6536 28.1705 28.6464 28.1688C27.2067 27.8414 26.7506 25.9643 26.7468 25.9479C26.6811 25.6575 26.4513 25.4325 26.1594 25.3729C25.8677 25.3129 25.5681 25.4299 25.3935 25.6712C23.6187 28.1248 19.6982 28.1499 19.6464 28.1499C19.6463 28.1499 19.6462 28.1499 19.6462 28.1499C19.6452 28.1499 19.6445 28.1499 19.6435 28.1499C19.6175 28.1499 19.5916 28.1513 19.5662 28.1538C19.5582 28.1547 19.5505 28.1563 19.5426 28.1574C19.5254 28.1598 19.508 28.1618 19.4911 28.1652C19.4803 28.1675 19.4698 28.1708 19.459 28.1735C19.4455 28.1768 19.4318 28.1798 19.4186 28.1839C19.4063 28.1877 19.3945 28.1927 19.3825 28.1971C19.3716 28.2011 19.3601 28.2047 19.3493 28.2092C19.3354 28.2151 19.3222 28.222 19.3089 28.2285C19.3003 28.2327 19.2916 28.2364 19.2832 28.241C19.2695 28.2483 19.2567 28.2567 19.2436 28.2648C19.2361 28.2696 19.2282 28.2738 19.2207 28.2788C19.2085 28.287 19.197 28.2962 19.1852 28.3052C19.1776 28.3109 19.1697 28.3162 19.1623 28.3223C19.1554 28.328 19.1489 28.3344 19.1421 28.3404V27.3957C19.1421 24.814 21.2423 22.7137 23.8238 22.7137H24.2772ZM11.3678 23.2421C11.43 19.9146 11.8998 16.7138 12.7367 13.8156C15.9388 14.3538 19.5317 14.6637 23.2421 14.701V21.2262C21.6533 21.375 20.2371 22.1252 19.2241 23.2472C19.1965 23.2442 19.1685 23.2422 19.1401 23.2422H11.3678V23.2421ZM18.8857 30.2111V32.1017C18.4607 31.9966 18.1445 31.6133 18.1445 31.1564C18.1444 30.6996 18.4607 30.3163 18.8857 30.2111ZM23.2421 1.55784V13.185C19.6898 13.149 16.2577 12.8599 13.1972 12.3586C13.745 10.7684 14.4093 9.28603 15.1829 7.94391C17.3885 4.11778 20.2261 1.87997 23.2421 1.55784ZM17.795 2.38706C16.3495 3.57394 15.0231 5.18578 13.8696 7.18688C13.0124 8.67384 12.2833 10.3216 11.69 12.0892C9.543 11.6703 7.62047 11.1405 6.01922 10.5159C8.92191 6.65484 13.0375 3.75506 17.795 2.38706ZM5.12719 11.7924C6.83494 12.4903 8.91291 13.0795 11.2408 13.5419C10.3902 16.5388 9.9135 19.8299 9.85181 23.2421H1.53C1.67016 19.0322 2.97281 15.1118 5.12719 11.7924ZM10.0109 39.2107C10.1662 39.2294 10.324 39.2401 10.4843 39.2401H11.1757C11.3358 39.2401 11.4936 39.2294 11.6488 39.2107V39.6307L10.8045 40.5069L10.0109 39.7342V39.2107ZM11.1757 37.7243H10.4843C9.14513 37.7243 8.05566 36.6349 8.05566 35.2957V33.2914C9.04275 33.1846 10.7908 32.8389 12.1389 31.7131C12.4408 32.2308 12.9077 32.7907 13.6042 33.1176V35.2958C13.6041 36.6349 12.5147 37.7243 11.1757 37.7243ZM13.1257 30.1817C13.06 29.8912 12.8302 29.6662 12.5384 29.6066C12.2466 29.5468 11.9469 29.6636 11.7726 29.9049C10.3991 31.8033 7.33725 31.8241 7.30031 31.8241C7.29938 31.8241 7.29862 31.8241 7.29778 31.8241C7.27172 31.8241 7.24584 31.8254 7.22044 31.8279C7.21247 31.8289 7.20478 31.8305 7.19681 31.8316C7.17966 31.8338 7.16222 31.836 7.14534 31.8394C7.13456 31.8416 7.12406 31.845 7.11328 31.8476C7.09978 31.851 7.08609 31.854 7.07288 31.858C7.06472 31.8606 7.05703 31.864 7.04897 31.8668V31.3729C7.04897 29.3923 8.66016 27.781 10.6407 27.781H11.0033C12.9837 27.781 14.5947 29.3923 14.5947 31.3729V31.8607H14.5945C14.58 31.856 14.5649 31.8524 14.5501 31.8486C14.5434 31.8469 14.537 31.8445 14.5302 31.8429C13.4738 31.6027 13.1283 30.1923 13.1257 30.1817ZM1.52991 24.7579H9.85163C9.86109 25.2799 9.88125 25.8012 9.91003 26.3183C7.43869 26.6737 5.53294 28.8045 5.53294 31.3728V32.7139C5.04684 33.1073 4.73513 33.7076 4.73513 34.3799C4.73513 35.5128 5.61947 36.4408 6.73388 36.516C7.03538 37.4406 7.66969 38.2155 8.49506 38.6996V39.1265L7.66716 39.4507C3.87394 35.4427 1.71216 30.2557 1.52991 24.7579ZM6.53972 33.8525V34.9073C6.36628 34.7956 6.25088 34.6012 6.25088 34.3801C6.25088 34.1588 6.36628 33.9644 6.53972 33.8525ZM14.0186 43.8448V46.4842H13.1304H9.25284H8.44444H7.76587H4.16409V44.5257C4.16409 42.4127 5.81597 41.8003 5.88019 41.7775C5.89191 41.7736 5.90363 41.7694 5.91516 41.7648L8.77369 40.6453L10.2926 42.1247C10.4342 42.2626 10.6239 42.3397 10.8214 42.3397C10.8253 42.3397 10.8293 42.3397 10.8334 42.3396C11.035 42.3365 11.2272 42.2529 11.367 42.1076L12.8018 40.6187L14.5752 41.3298C14.2389 42.018 14.0186 42.8515 14.0186 43.8448ZM21.3309 37.2221L17.3083 38.7974C16.7961 38.9737 16.0871 39.3802 15.4583 40.0508L13.1645 39.1309V38.6998C13.9903 38.2155 14.6248 37.4399 14.9263 36.5147C16.029 36.4276 16.9 35.5044 16.9 34.3799C16.9 33.7111 16.5917 33.1133 16.1103 32.7198V31.3728C16.1103 28.6991 14.045 26.5002 11.4262 26.2841C11.3974 25.7785 11.3774 25.2685 11.3678 24.7578H18.2171C17.8387 25.5587 17.6261 26.4526 17.6261 27.3956V29.1641C17.0208 29.6189 16.6284 30.3426 16.6284 31.1564C16.6284 32.5167 17.725 33.6252 19.0807 33.646C19.4363 34.8473 20.2556 35.851 21.3307 36.4491V37.2221H21.3309ZM15.1199 34.8908V33.8691C15.2796 33.9831 15.3843 34.1693 15.3843 34.38C15.3843 34.5907 15.2796 34.7768 15.1199 34.8908ZM25.2751 37.7511C25.2751 37.7521 25.2751 37.7531 25.2751 37.7539V37.7998L24.0333 39.0884L22.8467 37.9327V36.979C23.1012 37.0215 23.3622 37.0447 23.6287 37.0447H24.4933C24.7597 37.0447 25.0206 37.0215 25.2751 36.9792V37.7511ZM24.4933 35.529H23.6287C21.8492 35.529 20.4014 34.0813 20.4014 32.3018V29.6259C21.611 29.5146 24.0027 29.0941 25.7498 27.5257C26.1185 28.2235 26.7366 29.0336 27.7204 29.4538V32.3017C27.7203 34.0813 26.2727 35.529 24.4933 35.529ZM32.5626 40.0559C31.9338 39.3837 31.224 38.9757 30.7106 38.7985L26.7908 37.2264V36.4491C27.8662 35.8509 28.6853 34.847 29.0408 33.6453C30.3821 33.6082 31.4621 32.5063 31.4621 31.1565C31.4621 30.3473 31.074 29.6273 30.4746 29.1721V27.3957C30.4746 26.4528 30.262 25.5588 29.8836 24.7579H36.632C36.6221 25.2707 36.6021 25.7827 36.5728 26.2908C33.9941 26.5466 31.9734 28.7281 31.9734 31.3728V32.7141C31.4874 33.1073 31.1758 33.7077 31.1758 34.38C31.1758 35.513 32.0602 36.441 33.1746 36.5161C33.4761 37.4407 34.1105 38.2156 34.9358 38.6997V39.1266L32.5626 40.0559ZM32.9808 33.8525V34.9073C32.8073 34.7956 32.6919 34.6012 32.6919 34.3801C32.6919 34.1588 32.8073 33.9643 32.9808 33.8525ZM43.8522 46.4842H39.5715H35.694H34.8854H34.2068H33.9976V43.8447C33.9976 42.8555 33.7792 42.0247 33.4451 41.3382L35.2147 40.6452L36.7335 42.1246C36.8751 42.2625 37.0648 42.3397 37.2623 42.3397C37.2663 42.3397 37.2703 42.3397 37.2743 42.3396C37.4759 42.3365 37.6681 42.2529 37.808 42.1076L39.2428 40.6187L42.0952 41.7624C42.1086 41.7679 42.116 41.7707 42.1297 41.7754C42.2001 41.8003 43.8523 42.4128 43.8523 44.5258V46.4842H43.8522Z" fill="#148CFE"/>
</svg>
