<svg width="16" height="16" viewBox="0 0 16 16" fill="none" xmlns="http://www.w3.org/2000/svg">
<g clip-path="url(#clip0)">
<path d="M15.7961 0.194146C15.7061 0.1046 15.5925 0.042601 15.4685 0.0154398C15.3445 -0.0117214 15.2153 -0.00291591 15.0961 0.0408209L0.430213 5.37388C0.303731 5.42185 0.194838 5.50717 0.117996 5.6185C0.0411542 5.72983 0 5.86191 0 5.99718C0 6.13246 0.0411542 6.26453 0.117996 6.37586C0.194838 6.48719 0.303731 6.57251 0.430213 6.62048L6.15658 8.90703L10.383 4.66725L11.323 5.6072L7.07654 9.85365L9.36975 15.58C9.41915 15.7041 9.50466 15.8104 9.6152 15.8853C9.72573 15.9602 9.85621 16.0001 9.98972 16C10.1244 15.9972 10.2552 15.9537 10.3646 15.8752C10.4741 15.7966 10.5572 15.6868 10.603 15.56L15.9361 0.894111C15.9815 0.776167 15.9925 0.647743 15.9677 0.523812C15.9429 0.39988 15.8834 0.285548 15.7961 0.194146Z" fill="#148CFE"/>
</g>
<defs>
<clipPath id="clip0">
<rect width="16" height="16" fill="white"/>
</clipPath>
</defs>
</svg>
