<svg width="24" height="24" viewBox="0 0 24 24" fill="none" xmlns="http://www.w3.org/2000/svg">
<path d="M12 0C5.37253 0 0 5.37253 0 12C0 18.6275 5.37253 24 12 24C18.6275 24 24 18.6275 24 12C24 5.37253 18.6275 0 12 0Z" fill="#40B3E0"/>
<path d="M17.8389 6.90278L15.6955 17.7092C15.6955 17.7092 15.3957 18.4587 14.5714 18.099L9.62533 14.307L7.82683 13.4377L4.79927 12.4185C4.79927 12.4185 4.33464 12.2537 4.28964 11.8939C4.24464 11.5342 4.81427 11.3394 4.81427 11.3394L16.8495 6.61815C16.8495 6.61815 17.8388 6.18353 17.8388 6.90296" fill="white"/>
<path d="M9.24461 17.5877C9.24461 17.5877 9.10023 17.5742 8.92023 17.0046C8.74052 16.4351 7.82617 13.4375 7.82617 13.4375L15.0954 8.82126C15.0954 8.82126 15.5151 8.56645 15.5001 8.82126C15.5001 8.82126 15.575 8.86626 15.3501 9.07607C15.1254 9.28598 9.63977 14.2169 9.63977 14.2169" fill="#D2E5F1"/>
<path d="M11.5226 15.7608L9.56634 17.5445C9.56634 17.5445 9.41334 17.6605 9.24609 17.5878L9.62072 14.2747" fill="#B5CFE4"/>
</svg>
