<svg width="21" height="20" viewBox="0 0 21 20" fill="none" xmlns="http://www.w3.org/2000/svg">
<g clip-path="url(#clip0)">
<path d="M10.5 0.3125C5.14813 0.3125 0.8125 4.64875 0.8125 10C0.8125 15.3512 5.14875 19.6875 10.5 19.6875C15.8519 19.6875 20.1875 15.3512 20.1875 10C20.1875 4.64875 15.8512 0.3125 10.5 0.3125ZM15.2581 6.94938L13.6681 14.4419C13.5506 14.9731 13.2344 15.1019 12.7931 14.8519L10.3713 13.0669L9.20312 14.1919C9.07438 14.3206 8.965 14.43 8.715 14.43L8.88688 11.965L13.375 7.91C13.5706 7.73812 13.3319 7.64062 13.0737 7.8125L7.52688 11.3044L5.13625 10.5581C4.61688 10.3944 4.605 10.0387 5.24563 9.78875L14.5856 6.18688C15.0194 6.03063 15.3981 6.2925 15.2575 6.94875L15.2581 6.94938Z" fill="white"/>
</g>
<defs>
<clipPath id="clip0">
<rect width="20" height="20" fill="white" transform="translate(0.5)"/>
</clipPath>
</defs>
</svg>
