<svg width="24" height="24" viewBox="0 0 24 24" fill="none" xmlns="http://www.w3.org/2000/svg">
<path d="M9.60526 9.55386V8.64849C9.29098 8.59873 8.97356 8.57147 8.6554 8.56691C5.57518 8.56034 2.84819 10.5564 1.9232 13.4945C0.99821 16.4325 2.09005 19.6308 4.61834 21.39C3.69121 20.3977 3.07109 19.1583 2.83282 17.8214C2.59456 16.4845 2.74833 15.1072 3.27559 13.8557C3.80285 12.6043 4.68105 11.5322 5.80419 10.7688C6.92733 10.0055 8.24739 9.58358 9.60505 9.55396L9.60526 9.55386Z" fill="#25F4EE"/>
<path d="M9.77702 19.8095C11.4992 19.8072 12.9148 18.4504 12.9902 16.7299V1.37645H15.7951C15.7378 1.05562 15.7105 0.730174 15.7135 0.404297L11.877 0.404297V15.743C11.8132 17.4722 10.3942 18.842 8.6638 18.8448C8.1467 18.8404 7.63803 18.7132 7.17969 18.4738C7.47674 18.8853 7.86686 19.2208 8.31824 19.453C8.76961 19.6851 9.26946 19.8073 9.77702 19.8095ZM21.0341 6.58571V5.73233C20.0018 5.73273 18.9924 5.42813 18.1327 4.85675C18.8863 5.73294 19.9048 6.33986 21.0341 6.58571Z" fill="#25F4EE"/>
<path d="M18.1336 4.85646C17.2866 3.89202 16.8197 2.65221 16.8201 1.36865H15.796C15.9283 2.07832 16.2038 2.75358 16.6057 3.35325C17.0076 3.95291 17.5275 4.46438 18.1336 4.85646ZM8.65732 12.4033C7.93904 12.407 7.24261 12.6506 6.67873 13.0956C6.11485 13.5405 5.71589 14.1612 5.54529 14.8589C5.37468 15.5566 5.44223 16.2914 5.73718 16.9463C6.03212 17.6012 6.53755 18.1388 7.1731 18.4735C6.82561 17.9937 6.61753 17.4272 6.57182 16.8366C6.52612 16.2459 6.64458 15.6542 6.91411 15.1266C7.18365 14.5991 7.59377 14.1564 8.09916 13.8473C8.60455 13.5383 9.18554 13.3749 9.77793 13.3754C10.1 13.3796 10.4198 13.4297 10.7277 13.5242V9.62053C10.4133 9.5734 10.0959 9.54861 9.77793 9.54636H9.60717V12.5146C9.29764 12.4316 8.97766 12.3941 8.65732 12.4033Z" fill="#FE2C55"/>
<path d="M21.0319 6.58545V9.55379C19.1209 9.55008 17.2595 8.94516 15.7113 7.82473V15.6239C15.7031 19.5156 12.5459 22.6663 8.65425 22.6663C7.2089 22.6689 5.79835 22.2229 4.61719 21.3899C5.58035 22.4259 6.83317 23.1478 8.21246 23.4616C9.59176 23.7754 11.0336 23.6665 12.3501 23.1492C13.6667 22.6319 14.797 21.7301 15.5937 20.5613C16.3904 19.3925 16.8167 18.0108 16.817 16.5963V8.81918C18.3704 9.93223 20.2341 10.5292 22.1451 10.5259V6.70391C21.7709 6.7028 21.3979 6.6631 21.0319 6.58545Z" fill="#FE2C55"/>
<path d="M15.714 15.6239V7.8247C17.2668 8.93874 19.1309 9.53587 21.042 9.53146V6.56322C19.913 6.32478 18.892 5.72576 18.1332 4.85646C17.527 4.46438 17.0071 3.95291 16.6052 3.35325C16.2033 2.75358 15.9278 2.07832 15.7955 1.36865H12.9907V16.7298C12.9634 17.3985 12.7284 18.042 12.3185 18.571C11.9087 19.1 11.3442 19.4881 10.7035 19.6815C10.0629 19.8749 9.3779 19.864 8.74378 19.6502C8.10965 19.4363 7.55788 19.0303 7.16514 18.4885C6.52949 18.1538 6.02395 17.6163 5.72893 16.9613C5.4339 16.3063 5.36632 15.5715 5.53694 14.8737C5.70755 14.1759 6.10656 13.5552 6.67053 13.1103C7.23449 12.6653 7.93102 12.4217 8.64937 12.4181C8.97153 12.421 9.29154 12.471 9.59922 12.5666V9.59824C8.23426 9.62139 6.90552 10.0412 5.77501 10.8064C4.64451 11.5717 3.76108 12.6493 3.23244 13.908C2.70381 15.1666 2.55281 16.5519 2.79786 17.8949C3.04291 19.2379 3.67341 20.4805 4.6125 21.4714C5.80527 22.277 7.21782 22.6943 8.65687 22.6662C12.5486 22.6662 15.7057 19.5156 15.714 15.6239Z" fill="black"/>
</svg>
