<svg width="30" height="24" viewBox="0 0 30 24" fill="none" xmlns="http://www.w3.org/2000/svg">
<g clip-path="url(#clip0)">
<path d="M29.3991 2.92233C28.3174 3.40199 27.155 3.72616 25.935 3.872C27.1804 3.12559 28.1366 1.94362 28.5869 0.53531C27.403 1.23784 26.1078 1.73281 24.7571 1.99885C23.6569 0.826755 22.0895 0.0942383 20.3548 0.0942383C17.0239 0.0942383 14.3234 2.79464 14.3234 6.12524C14.3234 6.59801 14.3768 7.05826 14.4796 7.49979C9.46714 7.24819 5.02312 4.84716 2.04838 1.19824C1.52934 2.08899 1.23192 3.12513 1.23192 4.23028C1.23192 6.32275 2.29677 8.16869 3.91499 9.2503C2.95723 9.2203 2.02054 8.96162 1.18312 8.49585C1.18278 8.52111 1.18278 8.54637 1.18278 8.57175C1.18278 11.4939 3.2617 13.9316 6.02067 14.4856C5.13254 14.7272 4.20095 14.7625 3.29707 14.589C4.0645 16.9851 6.29191 18.7287 8.93099 18.7775C6.86687 20.395 4.26626 21.3593 1.44069 21.3593C0.9538 21.3593 0.4738 21.3307 0.00195312 21.275C2.67101 22.9862 5.84119 23.9847 9.24712 23.9847C20.3407 23.9847 26.407 14.7945 26.407 6.82469C26.407 6.5631 26.4013 6.303 26.3896 6.0444C27.5703 5.19083 28.5894 4.1336 29.3991 2.92233Z" fill="#55ACEE"/>
</g>
<defs>
<clipPath id="clip0">
<rect width="29.4" height="24" fill="white"/>
</clipPath>
</defs>
</svg>
