<svg width="24" height="24" viewBox="0 0 24 24" fill="none" xmlns="http://www.w3.org/2000/svg">
<g clip-path="url(#clip0)">
<path d="M24 4.31608C23.1174 4.6968 22.157 4.97081 21.1676 5.07753C22.1948 4.46732 22.9639 3.50329 23.3308 2.36631C22.367 2.93968 21.3111 3.34173 20.2101 3.55463C19.7499 3.06265 19.1933 2.67072 18.575 2.40325C17.9567 2.13579 17.2899 1.99852 16.6163 2.00001C13.8906 2.00001 11.6986 4.20936 11.6986 6.92057C11.6986 7.3013 11.7447 7.68202 11.8197 8.04832C7.73849 7.83489 4.09855 5.88512 1.67864 2.8999C1.23771 3.65303 1.00665 4.51055 1.00949 5.38326C1.00949 7.09075 1.87766 8.59633 3.20154 9.48181C2.42136 9.45108 1.65944 9.23664 0.977767 8.85592V8.91649C0.977767 11.3075 2.66795 13.289 4.92056 13.7448C4.49761 13.8546 4.06251 13.9108 3.62553 13.912C3.30537 13.912 3.00252 13.8803 2.69679 13.8371C3.31979 15.7868 5.134 17.203 7.29432 17.2491C5.60413 18.573 3.48708 19.3518 1.18832 19.3518C0.775868 19.3518 0.395145 19.3374 0 19.2912C2.18051 20.6901 4.7677 21.4977 7.5539 21.4977C16.599 21.4977 21.5484 14.0043 21.5484 7.50031C21.5484 7.28688 21.5484 7.07344 21.534 6.86C22.4915 6.15913 23.3308 5.29096 24 4.31608Z" fill="#828282"/>
</g>
<defs>
<clipPath id="clip0">
<rect width="24" height="24" fill="white"/>
</clipPath>
</defs>
</svg>
