<svg width="16" height="16" viewBox="0 0 16 16" fill="none" xmlns="http://www.w3.org/2000/svg">
<path fill-rule="evenodd" clip-rule="evenodd" d="M8 15C9.85652 15 11.637 14.2625 12.9497 12.9497C14.2625 11.637 15 9.85652 15 8C15 6.14348 14.2625 4.36301 12.9497 3.05025C11.637 1.7375 9.85652 1 8 1C6.14348 1 4.36301 1.7375 3.05025 3.05025C1.7375 4.36301 1 6.14348 1 8C1 9.85652 1.7375 11.637 3.05025 12.9497C4.36301 14.2625 6.14348 15 8 15ZM8 16C10.1217 16 12.1566 15.1571 13.6569 13.6569C15.1571 12.1566 16 10.1217 16 8C16 5.87827 15.1571 3.84344 13.6569 2.34315C12.1566 0.842855 10.1217 0 8 0C5.87827 0 3.84344 0.842855 2.34315 2.34315C0.842855 3.84344 0 5.87827 0 8C0 10.1217 0.842855 12.1566 2.34315 13.6569C3.84344 15.1571 5.87827 16 8 16Z" fill="#148CFE"/>
<path fill-rule="evenodd" clip-rule="evenodd" d="M4.64592 8.35392C4.69236 8.40048 4.74754 8.43742 4.80828 8.46263C4.86903 8.48784 4.93415 8.50081 4.99992 8.50081C5.06568 8.50081 5.13081 8.48784 5.19155 8.46263C5.2523 8.43742 5.30747 8.40048 5.35392 8.35392L7.99992 5.70692L10.6459 8.35392C10.7398 8.4478 10.8671 8.50055 10.9999 8.50055C11.1327 8.50055 11.26 8.4478 11.3539 8.35392C11.4478 8.26003 11.5005 8.13269 11.5005 7.99992C11.5005 7.86714 11.4478 7.7398 11.3539 7.64592L8.35392 4.64592C8.30747 4.59935 8.2523 4.56241 8.19155 4.5372C8.13081 4.512 8.06568 4.49902 7.99992 4.49902C7.93415 4.49902 7.86903 4.512 7.80828 4.5372C7.74754 4.56241 7.69236 4.59935 7.64592 4.64592L4.64592 7.64592C4.59935 7.69236 4.56241 7.74754 4.5372 7.80828C4.512 7.86903 4.49902 7.93415 4.49902 7.99992C4.49902 8.06568 4.512 8.13081 4.5372 8.19155C4.56241 8.2523 4.59935 8.30747 4.64592 8.35392Z" fill="#148CFE"/>
<path fill-rule="evenodd" clip-rule="evenodd" d="M8 11.5C8.13261 11.5 8.25979 11.4473 8.35355 11.3536C8.44732 11.2598 8.5 11.1326 8.5 11V6C8.5 5.86739 8.44732 5.74021 8.35355 5.64645C8.25979 5.55268 8.13261 5.5 8 5.5C7.86739 5.5 7.74021 5.55268 7.64645 5.64645C7.55268 5.74021 7.5 5.86739 7.5 6V11C7.5 11.1326 7.55268 11.2598 7.64645 11.3536C7.74021 11.4473 7.86739 11.5 8 11.5Z" fill="#148CFE"/>
</svg>
