<svg width="24" height="24" viewBox="0 0 24 24" fill="none" xmlns="http://www.w3.org/2000/svg">
<g clip-path="url(#clip0)">
<path fill-rule="evenodd" clip-rule="evenodd" d="M21.3625 14.7576C21.3625 14.7576 23.3029 16.674 23.7829 17.5608C23.7922 17.5736 23.7995 17.5878 23.8045 17.6028C24.0001 17.9304 24.0481 18.1872 23.9521 18.3768C23.7901 18.69 23.2417 18.8472 23.0557 18.8604H19.6261C19.3873 18.8604 18.8905 18.798 18.2857 18.3804C17.8237 18.0576 17.3641 17.526 16.9189 17.0064C16.2541 16.2348 15.6793 15.5652 15.0973 15.5652C15.0238 15.565 14.9508 15.5772 14.8813 15.6012C14.4409 15.7404 13.8817 16.368 13.8817 18.0396C13.8817 18.5628 13.4689 18.8604 13.1797 18.8604H11.6089C11.0737 18.8604 8.28731 18.6732 5.81651 16.068C2.78891 12.8784 0.0697081 6.47999 0.0433081 6.42359C-0.125892 6.00959 0.229308 5.78399 0.613308 5.78399H4.07651C4.54091 5.78399 4.69211 6.06479 4.79771 6.31679C4.92011 6.60599 5.37371 7.76279 6.11771 9.06239C7.32251 11.1768 8.06291 12.0372 8.65451 12.0372C8.76565 12.0375 8.87492 12.0085 8.97131 11.9532C9.74411 11.5284 9.60011 8.76839 9.56411 8.19959C9.56411 8.08919 9.56291 6.96719 9.16691 6.42479C8.88371 6.03599 8.40131 5.88479 8.10971 5.82959C8.18771 5.71679 8.35331 5.54399 8.56571 5.44199C9.09491 5.17799 10.0513 5.13959 11.0005 5.13959H11.5273C12.5569 5.15399 12.8233 5.21999 13.1977 5.31479C13.9513 5.49479 13.9657 5.98319 13.8997 7.64639C13.8805 8.12159 13.8601 8.65679 13.8601 9.28679C13.8601 9.42119 13.8541 9.57119 13.8541 9.72359C13.8313 10.5768 13.8013 11.538 14.4037 11.9328C14.4818 11.9815 14.5721 12.0072 14.6641 12.0072C14.8729 12.0072 15.4981 12.0072 17.1937 9.09719C17.9377 7.81199 18.5137 6.29639 18.5533 6.18239C18.5869 6.11879 18.6877 5.93999 18.8101 5.86799C18.8972 5.82166 18.9947 5.79852 19.0933 5.80079H23.1673C23.6113 5.80079 23.9125 5.86799 23.9713 6.03599C24.0697 6.30839 23.9521 7.13999 22.0921 9.65519C21.7789 10.074 21.5041 10.4364 21.2629 10.7532C19.5769 12.966 19.5769 13.0776 21.3625 14.7576Z" fill="#4D7198"/>
</g>
<defs>
<clipPath id="clip0">
<rect width="24" height="24" fill="white"/>
</clipPath>
</defs>
</svg>
