<svg width="24" height="24" viewBox="0 0 24 24" fill="none" xmlns="http://www.w3.org/2000/svg">
<path d="M23.4497 5.96522C23.6174 5.40829 23.4497 4.99988 22.6568 4.99988H20.0303C19.362 4.99988 19.0566 5.3532 18.8889 5.74125C18.8889 5.74125 17.5535 8.99779 15.6611 11.1093C15.0503 11.7238 14.7712 11.9178 14.4382 11.9178C14.2718 11.9178 14.0298 11.7238 14.0298 11.1668V5.96522C14.0298 5.29691 13.837 4.99988 13.2801 4.99988H9.15281C8.73601 4.99988 8.48449 5.30888 8.48449 5.60352C8.48449 6.2359 9.43067 6.38202 9.52769 8.1642V12.0304C9.52769 12.8771 9.37558 13.0316 9.04022 13.0316C8.15033 13.0316 5.9849 9.76312 4.69977 6.02151C4.44945 5.29451 4.19673 5.00108 3.52602 5.00108H0.900669C0.149712 5.00108 0 5.3544 0 5.74245C0 6.43951 0.889889 9.88888 4.14523 14.4509C6.31546 17.5661 9.37079 19.2549 12.1542 19.2549C13.8226 19.2549 14.0286 18.88 14.0286 18.2332V15.8786C14.0286 15.1288 14.1879 14.9779 14.7161 14.9779C15.1042 14.9779 15.7725 15.1743 17.3307 16.675C19.1105 18.4548 19.4051 19.2537 20.4052 19.2537H23.0305C23.7803 19.2537 24.1552 18.8788 23.9396 18.1386C23.7036 17.402 22.8533 16.3301 21.725 15.0617C21.1118 14.3383 20.1956 13.5598 19.9165 13.1706C19.5273 12.6687 19.6398 12.4472 19.9165 12.0016C19.9177 12.0028 23.1168 7.49708 23.4497 5.96522Z" fill="#828282"/>
</svg>
