<svg width="24" height="24" viewBox="0 0 24 24" fill="none" xmlns="http://www.w3.org/2000/svg">
<path d="M23.4497 5.96534C23.6174 5.40842 23.4497 5 22.6568 5H20.0303C19.362 5 19.0566 5.35332 18.8889 5.74138C18.8889 5.74138 17.5535 8.99791 15.6611 11.1095C15.0503 11.7239 14.7712 11.9179 14.4382 11.9179C14.2718 11.9179 14.0298 11.7239 14.0298 11.1669V5.96534C14.0298 5.29703 13.837 5 13.2801 5H9.15281C8.73601 5 8.48449 5.30901 8.48449 5.60364C8.48449 6.23602 9.43067 6.38214 9.52769 8.16432V12.0305C9.52769 12.8773 9.37558 13.0318 9.04022 13.0318C8.15033 13.0318 5.9849 9.76324 4.69977 6.02164C4.44945 5.29463 4.19673 5.0012 3.52602 5.0012H0.900669C0.149712 5.0012 0 5.35452 0 5.74257C0 6.43963 0.889889 9.889 4.14523 14.451C6.31546 17.5662 9.37079 19.255 12.1542 19.255C13.8226 19.255 14.0286 18.8801 14.0286 18.2334V15.8787C14.0286 15.1289 14.1879 14.978 14.7161 14.978C15.1042 14.978 15.7725 15.1744 17.3307 16.6752C19.1105 18.4549 19.4051 19.2538 20.4052 19.2538H23.0305C23.7803 19.2538 24.1552 18.8789 23.9396 18.1387C23.7036 17.4022 22.8533 16.3302 21.725 15.0619C21.1118 14.3384 20.1956 13.5599 19.9165 13.1707C19.5273 12.6689 19.6398 12.4473 19.9165 12.0017C19.9177 12.0029 23.1168 7.4972 23.4497 5.96534Z" fill="#828282"/>
</svg>
