<svg width="24" height="24" viewBox="0 0 24 24" fill="none" xmlns="http://www.w3.org/2000/svg">
<g clip-path="url(#clip0)">
<path d="M23.9993 17.9333C23.9993 18.0647 23.9953 18.3497 23.9874 18.5698C23.9681 19.1085 23.9254 19.8036 23.8608 20.1203C23.7638 20.5962 23.6173 21.0454 23.4263 21.4193C23.2002 21.8616 22.912 22.2577 22.5694 22.5997C22.2276 22.9409 21.8318 23.2281 21.3901 23.4532C21.0143 23.6447 20.5623 23.7913 20.0836 23.8879C19.7701 23.9512 19.0802 23.9931 18.545 24.0121C18.3246 24.02 18.0396 24.024 17.9086 24.024L6.09072 24.0221C5.9593 24.0221 5.67435 24.018 5.4542 24.0101C4.91553 23.9908 4.22046 23.9481 3.90374 23.8836C3.42782 23.7865 2.97858 23.64 2.60471 23.449C2.16239 23.223 1.76622 22.9347 1.42429 22.5921C1.08303 22.2503 0.795875 21.8545 0.570803 21.4129C0.379223 21.037 0.232643 20.585 0.136009 20.1064C0.0727273 19.7929 0.0308441 19.103 0.0117892 18.5678C0.00396098 18.3474 0 18.0624 0 17.9315L0.00187502 6.11363C0.00187502 5.98221 0.00588287 5.69724 0.0137814 5.47709C0.0331175 4.93843 0.0757976 4.24336 0.140369 3.92668C0.237424 3.45075 0.38391 3.00153 0.574951 2.62763C0.800961 2.18534 1.08927 1.78915 1.43181 1.44722C1.77363 1.106 2.16944 0.818816 2.61108 0.593723C2.98695 0.402191 3.439 0.255613 3.91762 0.15898C4.23114 0.0956758 4.92103 0.053793 5.45626 0.0347617C5.67662 0.0269102 5.96169 0.0229492 6.09257 0.0229492L17.9105 0.0248477C18.042 0.0248477 18.3269 0.0288555 18.5471 0.0367539C19.0857 0.0560898 19.7808 0.0987695 20.0975 0.16334C20.5734 0.260394 21.0226 0.406879 21.3965 0.597918C21.8388 0.823926 22.235 1.11223 22.5769 1.45477C22.9182 1.79658 23.2054 2.19237 23.4304 2.63403C23.622 3.00989 23.7686 3.46191 23.8652 3.94053C23.9285 4.25407 23.9704 4.94393 23.9894 5.47917C23.9973 5.69953 24.0013 5.98458 24.0013 6.1155L23.9993 17.9333Z" fill="url(#paint0_linear)"/>
<path d="M18.3567 5.70109C16.7318 4.07483 14.5709 3.17877 12.2685 3.17786C7.52476 3.17786 3.66391 7.03726 3.66201 11.7811C3.6614 13.2975 4.0577 14.7777 4.81084 16.0824L3.58984 20.5409L8.15227 19.3445C9.40936 20.0299 10.8246 20.3911 12.2651 20.3917H12.2686C17.0119 20.3917 20.8731 16.5318 20.8751 11.788C20.876 9.48904 19.9816 7.32735 18.3567 5.70109ZM12.2686 18.9386H12.2657C10.9821 18.9381 9.72316 18.5934 8.62486 17.9418L8.36363 17.7869L5.65622 18.4969L6.37889 15.858L6.20875 15.5874C5.4927 14.4489 5.11451 13.1328 5.11508 11.7817C5.11662 7.8388 8.32564 4.63098 12.2714 4.63098C14.182 4.63171 15.9781 5.37655 17.3287 6.72822C18.6793 8.07988 19.4226 9.87662 19.4219 11.7874C19.4204 15.7306 16.2114 18.9386 12.2686 18.9386ZM16.1924 13.5828C15.9773 13.4752 14.9201 12.9551 14.723 12.8833C14.5258 12.8116 14.3825 12.7757 14.2391 12.991C14.0958 13.2062 13.6836 13.6904 13.5582 13.8339C13.4327 13.9774 13.3073 13.9953 13.0923 13.8877C12.8772 13.7801 12.1843 13.5531 11.3629 12.8207C10.7237 12.2507 10.292 11.5466 10.1666 11.3314C10.0412 11.1162 10.1533 10.9998 10.2609 10.8926C10.3576 10.7963 10.4759 10.6416 10.5835 10.516C10.691 10.3905 10.7268 10.3008 10.7985 10.1573C10.8702 10.0138 10.8343 9.88829 10.7806 9.78069C10.7268 9.67309 10.2967 8.61493 10.1175 8.1845C9.943 7.7653 9.76568 7.82202 9.63368 7.81543C9.50838 7.8092 9.36487 7.80789 9.22153 7.80789C9.07819 7.80789 8.8452 7.86168 8.64809 8.0769C8.45098 8.29213 7.89545 8.81223 7.89545 9.87036C7.89545 10.9285 8.666 11.9508 8.77353 12.0942C8.88106 12.2377 10.2899 14.4092 12.4471 15.3404C12.9602 15.5619 13.3608 15.6941 13.6731 15.7932C14.1882 15.9568 14.657 15.9337 15.0276 15.8784C15.4407 15.8167 16.2999 15.3583 16.4791 14.8562C16.6583 14.354 16.6583 13.9236 16.6045 13.8339C16.5508 13.7442 16.4074 13.6904 16.1924 13.5828Z" fill="white"/>
</g>
<defs>
<linearGradient id="paint0_linear" x1="12.0006" y1="0.0229492" x2="12.0006" y2="24.024" gradientUnits="userSpaceOnUse">
<stop stop-color="#61FD7D"/>
<stop offset="1" stop-color="#2BB826"/>
</linearGradient>
<clipPath id="clip0">
<rect width="24" height="24" fill="white"/>
</clipPath>
</defs>
</svg>
