<svg width="12" height="12" viewBox="0 0 12 12" fill="none" xmlns="http://www.w3.org/2000/svg">
<g clip-path="url(#clip0)">
<path d="M3.67266 6.00008H0.375C0.16875 6.00008 0 6.16883 0 6.37508V7.12508C0 7.33133 0.16875 7.50008 0.375 7.50008H3.70781C4.08047 7.50008 4.42969 7.75555 4.49063 8.12352C4.56797 8.59227 4.20703 9.00008 3.75 9.00008C3.41953 9.00008 3.13828 8.78446 3.0375 8.4868C2.98828 8.33915 2.83594 8.25008 2.68125 8.25008H1.9125C1.68281 8.25008 1.49766 8.45633 1.53984 8.68133C1.74141 9.71493 2.65547 10.5001 3.74766 10.5001C5.08594 10.5001 6.15469 9.32586 5.97891 7.95477C5.83594 6.8204 4.81406 6.00008 3.67266 6.00008ZM0.375 5.25008H8.25C9.64922 5.25008 10.7531 3.96571 10.4484 2.51493C10.2703 1.66649 9.58359 0.979771 8.73516 0.801646C7.43672 0.529771 6.27187 1.38524 6.04219 2.57118C5.99766 2.79618 6.18516 3.00008 6.4125 3.00008H7.18125C7.33828 3.00008 7.48828 2.91102 7.5375 2.76337C7.63828 2.46571 7.91953 2.25008 8.25 2.25008C8.70469 2.25008 9.06797 2.6579 8.99063 3.12665C8.92969 3.49461 8.58281 3.75008 8.20781 3.75008H0.375C0.16875 3.75008 0 3.91883 0 4.12508V4.87508C0 5.08133 0.16875 5.25008 0.375 5.25008ZM9.375 6.00008H5.71172C6.16406 6.38915 6.48984 6.90946 6.64453 7.50008H9.375C9.99609 7.50008 10.5 8.00399 10.5 8.62508C10.5 9.24618 9.99609 9.75008 9.375 9.75008C8.95547 9.75008 8.59453 9.51805 8.4 9.17821C8.33203 9.06102 8.19609 9.00008 8.06016 9.00008H7.26797C7.0125 9.00008 6.82266 9.25321 6.90937 9.49461C7.32656 10.6806 8.56172 11.4821 9.94219 11.1891C10.9078 10.9852 11.7023 10.2141 11.9273 9.25086C12.3281 7.53524 11.0273 6.00008 9.375 6.00008Z" fill="#148CFE"/>
</g>
<defs>
<clipPath id="clip0">
<rect width="12" height="12" fill="white"/>
</clipPath>
</defs>
</svg>
