<svg width="35" height="24" viewBox="0 0 35 24" fill="none" xmlns="http://www.w3.org/2000/svg">
<g clip-path="url(#clip0)">
<path d="M33.3834 3.74333C33.1876 3.01981 32.8057 2.36019 32.2757 1.83017C31.7457 1.30015 31.0861 0.918215 30.3626 0.7224C27.7138 0 17.0533 0 17.0533 0C17.0533 0 6.3922 0.0218666 3.7434 0.744267C3.01987 0.940093 2.36026 1.32205 1.83026 1.85209C1.30026 2.38214 0.918361 3.04178 0.722599 3.76533C-0.0786015 8.47173 -0.389402 15.6432 0.744599 20.1613C0.940382 20.8849 1.32229 21.5445 1.85229 22.0745C2.38228 22.6045 3.04188 22.9865 3.7654 23.1823C6.4142 23.9047 17.075 23.9047 17.075 23.9047C17.075 23.9047 27.7357 23.9047 30.3843 23.1823C31.1079 22.9865 31.7675 22.6045 32.2975 22.0745C32.8275 21.5445 33.2095 20.8849 33.4053 20.1613C34.2503 15.4483 34.5107 8.28133 33.3834 3.74347V3.74333Z" fill="#FF0000"/>
<path d="M13.6602 17.0749L22.504 11.9525L13.6603 6.83008L13.6602 17.0749Z" fill="white"/>
</g>
<defs>
<clipPath id="clip0">
<rect width="34.14" height="24" fill="white"/>
</clipPath>
</defs>
</svg>
