<svg width="23" height="20" viewBox="0 0 23 20" fill="none" xmlns="http://www.w3.org/2000/svg">
<path d="M21.4711 4.84699C21.2257 3.92316 20.5028 3.19559 19.585 2.94867C17.9213 2.5 11.2502 2.5 11.2502 2.5C11.2502 2.5 4.57908 2.5 2.91537 2.94867C1.99752 3.19563 1.27463 3.92316 1.02928 4.84699C0.583496 6.52148 0.583496 10.0152 0.583496 10.0152C0.583496 10.0152 0.583496 13.5088 1.02928 15.1833C1.27463 16.1071 1.99752 16.8044 2.91537 17.0513C4.57908 17.5 11.2502 17.5 11.2502 17.5C11.2502 17.5 17.9213 17.5 19.585 17.0513C20.5028 16.8044 21.2257 16.1071 21.4711 15.1833C21.9169 13.5088 21.9169 10.0152 21.9169 10.0152C21.9169 10.0152 21.9169 6.52148 21.4711 4.84699ZM9.06834 13.1871V6.84316L14.6441 10.0152L9.06834 13.1871Z" fill="white"/>
</svg>
